<?xml version="1.0" encoding="utf-8"?>
<!-- Generator: Adobe Illustrator 16.0.0, SVG Export Plug-In . SVG Version: 6.00 Build 0)  -->
<!DOCTYPE svg PUBLIC "-//W3C//DTD SVG 1.1//EN" "http://www.w3.org/Graphics/SVG/1.1/DTD/svg11.dtd">
<svg version="1.1" id="Layer_1" xmlns="http://www.w3.org/2000/svg" xmlns:xlink="http://www.w3.org/1999/xlink" x="0px" y="0px"
	 width="120px" height="40px" viewBox="0 0 120 40" enable-background="new 0 0 120 40" xml:space="preserve">
<path d="M5.629,3.696h1.595l3.298,8.563H8.915L8.112,9.993H4.693L3.89,12.26H2.343L5.629,3.696z M5.101,8.854h2.615L6.433,5.172
	H6.396L5.101,8.854z"/>
<path d="M11.15,6.059h1.283v1.199h0.024c0.156-0.66,0.972-1.367,1.811-1.367c0.312,0,0.396,0.024,0.516,0.036v1.319
	c-0.192-0.024-0.396-0.06-0.587-0.06c-0.936,0-1.679,0.756-1.679,2.123v2.95H11.15V6.059z"/>
<path d="M15.525,6.059h1.032V4.2h1.367v1.859h1.235v1.02h-1.235v3.31c0,0.564,0.048,0.852,0.66,0.852c0.192,0,0.384,0,0.576-0.048
	v1.055c-0.3,0.024-0.588,0.072-0.888,0.072c-1.427,0-1.691-0.552-1.715-1.583V7.079h-1.032V6.059z"/>
<path d="M21.212,9.513c0,0.972,0.528,1.835,1.667,1.835c0.792,0,1.271-0.348,1.511-1.031h1.295c-0.3,1.355-1.451,2.111-2.807,2.111
	c-1.943,0-3.034-1.355-3.034-3.262c0-1.763,1.151-3.274,2.998-3.274c1.955,0,3.154,1.763,2.927,3.622H21.212z M24.402,8.614
	c-0.048-0.864-0.635-1.643-1.559-1.643c-0.947,0-1.595,0.72-1.631,1.643H24.402z"/>
<path d="M26.817,6.059H28.1v1.199h0.024c0.156-0.66,0.972-1.367,1.811-1.367c0.312,0,0.396,0.024,0.516,0.036v1.319
	c-0.192-0.024-0.396-0.06-0.587-0.06c-0.936,0-1.679,0.756-1.679,2.123v2.95h-1.367V6.059z"/>
<path d="M31.077,3.696h1.368v1.295h-1.368V3.696z M31.077,6.059h1.368v6.201h-1.368V6.059z"/>
<path d="M39.126,10.88c0,0.336,0.072,0.468,0.324,0.468c0.084,0,0.192,0,0.336-0.024v0.948c-0.204,0.072-0.636,0.156-0.863,0.156
	c-0.552,0-0.948-0.192-1.056-0.756c-0.54,0.528-1.415,0.756-2.146,0.756c-1.116,0-2.123-0.6-2.123-1.811
	c0-1.547,1.235-1.799,2.387-1.931c0.983-0.18,1.859-0.072,1.859-0.875c0-0.708-0.731-0.839-1.283-0.839
	c-0.768,0-1.307,0.312-1.367,0.983h-1.367c0.096-1.595,1.451-2.063,2.818-2.063c1.211,0,2.482,0.492,2.482,1.799V10.88z
	 M37.759,9.153c-0.419,0.276-1.079,0.264-1.679,0.372c-0.587,0.096-1.115,0.312-1.115,1.031c0,0.612,0.78,0.792,1.259,0.792
	c0.6,0,1.535-0.312,1.535-1.175V9.153z"/>
<path d="M40.641,3.696h1.368v8.563h-1.368V3.696z"/>
<path d="M48.008,9.405c0,1.319,0.971,1.835,2.171,1.835c1.319,0,1.811-0.647,1.811-1.295c0-0.66-0.36-0.923-0.708-1.055
	c-0.6-0.228-1.379-0.384-2.554-0.708c-1.463-0.396-1.895-1.283-1.895-2.171c0-1.715,1.583-2.519,3.13-2.519
	c1.787,0,3.286,0.947,3.286,2.734h-1.5c-0.072-1.104-0.815-1.511-1.847-1.511c-0.696,0-1.571,0.252-1.571,1.115
	c0,0.6,0.408,0.936,1.02,1.104c0.132,0.036,2.027,0.528,2.471,0.66c1.127,0.336,1.667,1.295,1.667,2.183
	c0,1.919-1.703,2.687-3.406,2.687c-1.955,0-3.538-0.936-3.574-3.059H48.008z"/>
<path d="M54.645,3.696h1.368v8.563h-1.368V3.696z"/>
<path d="M57.213,9.153c0-1.895,1.139-3.262,3.13-3.262c1.991,0,3.129,1.367,3.129,3.262c0,1.907-1.139,3.274-3.129,3.274
	C58.352,12.428,57.213,11.061,57.213,9.153z M62.105,9.153c0-1.067-0.539-2.183-1.762-2.183c-1.224,0-1.763,1.115-1.763,2.183
	c0,1.08,0.539,2.195,1.763,2.195C61.566,11.348,62.105,10.233,62.105,9.153z"/>
<path d="M64.053,6.059h1.451l1.211,4.629h0.025l1.162-4.629h1.379l1.115,4.629h0.025l1.26-4.629h1.391l-1.943,6.201h-1.402
	l-1.152-4.605h-0.023L67.41,12.26h-1.438L64.053,6.059z"/>
<path d="M77.229,3.696h6.512v1.14l-4.988,6.128h5.109v1.295h-7.018v-1.223l4.99-6.045h-4.605V3.696z"/>
<path d="M84.561,9.153c0-1.895,1.139-3.262,3.131-3.262c1.99,0,3.129,1.367,3.129,3.262c0,1.907-1.139,3.274-3.129,3.274
	C85.699,12.428,84.561,11.061,84.561,9.153z M89.453,9.153c0-1.067-0.539-2.183-1.762-2.183c-1.225,0-1.764,1.115-1.764,2.183
	c0,1.08,0.539,2.195,1.764,2.195C88.914,11.348,89.453,10.233,89.453,9.153z"/>
<path d="M91.965,6.059h1.295v0.912l0.023,0.024c0.408-0.684,1.115-1.104,1.932-1.104c1.344,0,2.195,0.72,2.195,2.111v4.258h-1.367
	V8.362c-0.025-0.971-0.408-1.391-1.213-1.391c-0.91,0-1.498,0.72-1.498,1.631v3.658h-1.367V6.059z"/>
<path d="M99.92,9.513c0,0.972,0.527,1.835,1.666,1.835c0.793,0,1.271-0.348,1.512-1.031h1.295c-0.299,1.355-1.451,2.111-2.807,2.111
	c-1.943,0-3.033-1.355-3.033-3.262c0-1.763,1.15-3.274,2.998-3.274c1.955,0,3.154,1.763,2.926,3.622H99.92z M103.109,8.614
	c-0.047-0.864-0.635-1.643-1.559-1.643c-0.947,0-1.596,0.72-1.631,1.643H103.109z"/>
<path d="M106.555,10.269c0.072,0.792,0.672,1.079,1.404,1.079c0.516,0,1.414-0.108,1.379-0.815c-0.037-0.72-1.031-0.804-2.027-1.031
	c-1.008-0.216-1.99-0.576-1.99-1.835c0-1.355,1.463-1.775,2.59-1.775c1.271,0,2.424,0.528,2.592,1.907h-1.428
	c-0.121-0.648-0.66-0.828-1.26-0.828c-0.396,0-1.127,0.096-1.127,0.636c0,0.671,1.008,0.768,2.014,0.995
	c0.996,0.228,2.004,0.588,2.004,1.811c0,1.476-1.486,2.015-2.771,2.015c-1.559,0-2.721-0.696-2.746-2.159H106.555z"/>
<rect x="2.427" y="20.697" fill="#1979B5" width="39.974" height="6.17"/>
</svg>
