<?xml version="1.0" encoding="utf-8"?>
<!-- Generator: Adobe Illustrator 16.0.0, SVG Export Plug-In . SVG Version: 6.00 Build 0)  -->
<!DOCTYPE svg PUBLIC "-//W3C//DTD SVG 1.1//EN" "http://www.w3.org/Graphics/SVG/1.1/DTD/svg11.dtd">
<svg version="1.1" id="Layer_1" xmlns="http://www.w3.org/2000/svg" xmlns:xlink="http://www.w3.org/1999/xlink" x="0px" y="0px"
	 width="463.711px" height="35.021px" viewBox="0 0 463.711 35.021" enable-background="new 0 0 463.711 35.021"
	 xml:space="preserve">
<path d="M17.117,6.675h4.209l8.703,22.595h-4.241l-2.119-5.98h-9.02l-2.119,5.98H8.447L17.117,6.675z M15.725,20.283h6.899
	l-3.386-9.714h-0.096L15.725,20.283z"/>
<path d="M31.686,12.909h3.386v3.165h0.063c0.411-1.741,2.563-3.607,4.778-3.607c0.823,0,1.045,0.063,1.36,0.095v3.481
	c-0.506-0.063-1.043-0.158-1.55-0.158c-2.468,0-4.431,1.994-4.431,5.602v7.784h-3.607V12.909z"/>
<path d="M43.229,12.909h2.722V8.004h3.607v4.905h3.26v2.69h-3.26v8.734c0,1.487,0.126,2.246,1.741,2.246
	c0.506,0,1.013,0,1.519-0.126v2.784c-0.791,0.064-1.551,0.19-2.342,0.19c-3.766,0-4.461-1.455-4.525-4.177V15.6h-2.722V12.909z"/>
<path d="M58.235,22.023c0,2.564,1.393,4.842,4.398,4.842c2.088,0,3.355-0.917,3.987-2.721h3.418
	c-0.791,3.575-3.829,5.569-7.406,5.569c-5.126,0-8.006-3.576-8.006-8.607c0-4.652,3.038-8.64,7.911-8.64
	c5.158,0,8.322,4.652,7.723,9.557H58.235z M66.652,19.65c-0.126-2.279-1.676-4.335-4.114-4.335c-2.5,0-4.208,1.899-4.303,4.335
	H66.652z"/>
<path d="M73.023,12.909h3.386v3.165h0.063c0.411-1.741,2.563-3.607,4.778-3.607c0.823,0,1.045,0.063,1.36,0.095v3.481
	c-0.506-0.063-1.043-0.158-1.55-0.158c-2.469,0-4.431,1.994-4.431,5.602v7.784h-3.607V12.909z"/>
<path d="M84.262,6.675h3.609v3.418h-3.609V6.675z M84.262,12.909h3.609V29.27h-3.609V12.909z"/>
<path d="M105.501,25.63c0,0.887,0.19,1.234,0.854,1.234c0.222,0,0.508,0,0.887-0.063v2.501c-0.537,0.189-1.678,0.411-2.277,0.411
	c-1.456,0-2.501-0.507-2.786-1.994c-1.423,1.393-3.733,1.994-5.663,1.994c-2.944,0-5.602-1.582-5.602-4.778
	c0-4.083,3.259-4.747,6.297-5.096c2.595-0.474,4.905-0.189,4.905-2.31c0-1.867-1.931-2.215-3.386-2.215
	c-2.025,0-3.449,0.823-3.607,2.595h-3.607c0.252-4.209,3.829-5.443,7.437-5.443c3.196,0,6.55,1.297,6.55,4.748V25.63z
	 M101.894,21.074c-1.106,0.728-2.848,0.697-4.431,0.981c-1.55,0.252-2.942,0.822-2.942,2.721c0,1.615,2.057,2.089,3.322,2.089
	c1.582,0,4.051-0.822,4.051-3.101V21.074z"/>
<path d="M109.498,6.675h3.608V29.27h-3.608V6.675z"/>
<path d="M128.938,21.738c0,3.481,2.563,4.841,5.728,4.841c3.481,0,4.778-1.708,4.778-3.417c0-1.741-0.949-2.437-1.868-2.784
	c-1.582-0.602-3.638-1.013-6.739-1.867c-3.861-1.045-5-3.386-5-5.728c0-4.526,4.177-6.646,8.26-6.646c4.714,0,8.671,2.5,8.671,7.215
	h-3.957c-0.189-2.912-2.151-3.987-4.872-3.987c-1.836,0-4.146,0.665-4.146,2.942c0,1.583,1.076,2.469,2.69,2.912
	c0.348,0.095,5.348,1.393,6.52,1.741c2.975,0.886,4.398,3.418,4.398,5.76c0,5.063-4.494,7.089-8.988,7.089
	c-5.157,0-9.335-2.469-9.429-8.071H128.938z"/>
<path d="M146.448,6.675h3.608V29.27h-3.608V6.675z"/>
<path d="M153.224,21.074c0-5,3.006-8.607,8.26-8.607c5.253,0,8.258,3.607,8.258,8.607c0,5.032-3.005,8.64-8.258,8.64
	C156.23,29.713,153.224,26.106,153.224,21.074z M166.134,21.074c0-2.816-1.423-5.759-4.65-5.759c-3.229,0-4.65,2.943-4.65,5.759
	c0,2.849,1.422,5.791,4.65,5.791C164.711,26.865,166.134,23.922,166.134,21.074z"/>
<path d="M171.272,12.909h3.829l3.195,12.215h0.066l3.066-12.215h3.639l2.942,12.215h0.066l3.324-12.215h3.67l-5.128,16.361h-3.7
	l-3.041-12.152h-0.062l-3.01,12.152h-3.793L171.272,12.909z"/>
<path d="M206.037,6.675h17.182v3.007l-13.162,16.17h13.481v3.418h-18.516v-3.228l13.167-15.95h-12.152V6.675z"/>
<path d="M225.382,21.074c0-5,3.005-8.607,8.262-8.607c5.251,0,8.256,3.607,8.256,8.607c0,5.032-3.005,8.64-8.256,8.64
	C228.387,29.713,225.382,26.106,225.382,21.074z M238.292,21.074c0-2.816-1.423-5.759-4.648-5.759c-3.231,0-4.654,2.943-4.654,5.759
	c0,2.849,1.423,5.791,4.654,5.791C236.87,26.865,238.292,23.922,238.292,21.074z"/>
<path d="M244.919,12.909h3.417v2.405l0.062,0.063c1.077-1.804,2.942-2.912,5.097-2.912c3.546,0,5.793,1.899,5.793,5.569V29.27
	h-3.607V18.985c-0.067-2.563-1.077-3.671-3.2-3.671c-2.402,0-3.953,1.899-3.953,4.303v9.652h-3.607V12.909z"/>
<path d="M265.91,22.023c0,2.564,1.391,4.842,4.396,4.842c2.093,0,3.354-0.917,3.989-2.721h3.416
	c-0.788,3.575-3.829,5.569-7.405,5.569c-5.128,0-8.003-3.576-8.003-8.607c0-4.652,3.035-8.64,7.91-8.64
	c5.158,0,8.323,4.652,7.72,9.557H265.91z M274.325,19.65c-0.123-2.279-1.675-4.335-4.112-4.335c-2.499,0-4.21,1.899-4.303,4.335
	H274.325z"/>
<path d="M283.416,24.017c0.19,2.089,1.772,2.848,3.705,2.848c1.36,0,3.731-0.285,3.639-2.151c-0.098-1.899-2.721-2.121-5.35-2.721
	c-2.659-0.571-5.251-1.519-5.251-4.842c0-3.576,3.859-4.684,6.833-4.684c3.355,0,6.396,1.393,6.839,5.032h-3.768
	c-0.319-1.71-1.741-2.184-3.323-2.184c-1.047,0-2.974,0.253-2.974,1.678c0,1.771,2.659,2.025,5.313,2.625
	c2.628,0.602,5.287,1.551,5.287,4.778c0,3.894-3.922,5.317-7.313,5.317c-4.112,0-7.179-1.836-7.246-5.696H283.416z"/>
<rect x="347.783" y="9.833" fill="#1979B5" width="105.476" height="16.28"/>
</svg>
