<?xml version="1.0" encoding="utf-8"?>
<!-- Generator: Adobe Illustrator 16.0.0, SVG Export Plug-In . SVG Version: 6.00 Build 0)  -->
<!DOCTYPE svg PUBLIC "-//W3C//DTD SVG 1.1//EN" "http://www.w3.org/Graphics/SVG/1.1/DTD/svg11.dtd">
<svg version="1.1" id="Layer_1" xmlns="http://www.w3.org/2000/svg" xmlns:xlink="http://www.w3.org/1999/xlink" x="0px" y="0px"
	 width="111.694px" height="28.293px" viewBox="0.395 10.706 111.694 28.293" enable-background="new 0.395 10.706 111.694 28.293"
	 xml:space="preserve">
<metadata><?xpacket begin="﻿" id="W5M0MpCehiHzreSzNTczkc9d"?>
<x:xmpmeta xmlns:x="adobe:ns:meta/" x:xmptk="Adobe XMP Core 5.3-c011 66.145661, 2012/02/06-14:56:27        ">
   <rdf:RDF xmlns:rdf="http://www.w3.org/1999/02/22-rdf-syntax-ns#">
      <rdf:Description rdf:about=""
            xmlns:dc="http://purl.org/dc/elements/1.1/">
         <dc:format>image/svg+xml</dc:format>
         <dc:title>
            <rdf:Alt>
               <rdf:li xml:lang="x-default">Print</rdf:li>
            </rdf:Alt>
         </dc:title>
      </rdf:Description>
      <rdf:Description rdf:about=""
            xmlns:xmp="http://ns.adobe.com/xap/1.0/"
            xmlns:xmpGImg="http://ns.adobe.com/xap/1.0/g/img/">
         <xmp:MetadataDate>2014-07-24T08:47:08-04:00</xmp:MetadataDate>
         <xmp:ModifyDate>2014-07-24T08:47:08-04:00</xmp:ModifyDate>
         <xmp:CreateDate>2014-07-24T08:47:06-04:00</xmp:CreateDate>
         <xmp:CreatorTool>Adobe Illustrator CS6 (Windows)</xmp:CreatorTool>
         <xmp:Thumbnails>
            <rdf:Alt>
               <rdf:li rdf:parseType="Resource">
                  <xmpGImg:width>256</xmpGImg:width>
                  <xmpGImg:height>56</xmpGImg:height>
                  <xmpGImg:format>JPEG</xmpGImg:format>
                  <xmpGImg:image>/9j/4AAQSkZJRgABAgEASABIAAD/7QAsUGhvdG9zaG9wIDMuMAA4QklNA+0AAAAAABAASAAAAAEA&#xA;AQBIAAAAAQAB/+4ADkFkb2JlAGTAAAAAAf/bAIQABgQEBAUEBgUFBgkGBQYJCwgGBggLDAoKCwoK&#xA;DBAMDAwMDAwQDA4PEA8ODBMTFBQTExwbGxscHx8fHx8fHx8fHwEHBwcNDA0YEBAYGhURFRofHx8f&#xA;Hx8fHx8fHx8fHx8fHx8fHx8fHx8fHx8fHx8fHx8fHx8fHx8fHx8fHx8fHx8f/8AAEQgAOAEAAwER&#xA;AAIRAQMRAf/EAaIAAAAHAQEBAQEAAAAAAAAAAAQFAwIGAQAHCAkKCwEAAgIDAQEBAQEAAAAAAAAA&#xA;AQACAwQFBgcICQoLEAACAQMDAgQCBgcDBAIGAnMBAgMRBAAFIRIxQVEGE2EicYEUMpGhBxWxQiPB&#xA;UtHhMxZi8CRygvElQzRTkqKyY3PCNUQnk6OzNhdUZHTD0uIIJoMJChgZhJRFRqS0VtNVKBry4/PE&#xA;1OT0ZXWFlaW1xdXl9WZ2hpamtsbW5vY3R1dnd4eXp7fH1+f3OEhYaHiImKi4yNjo+Ck5SVlpeYmZ&#xA;qbnJ2en5KjpKWmp6ipqqusra6voRAAICAQIDBQUEBQYECAMDbQEAAhEDBCESMUEFURNhIgZxgZEy&#xA;obHwFMHR4SNCFVJicvEzJDRDghaSUyWiY7LCB3PSNeJEgxdUkwgJChgZJjZFGidkdFU38qOzwygp&#xA;0+PzhJSktMTU5PRldYWVpbXF1eX1RlZmdoaWprbG1ub2R1dnd4eXp7fH1+f3OEhYaHiImKi4yNjo&#xA;+DlJWWl5iZmpucnZ6fkqOkpaanqKmqq6ytrq+v/aAAwDAQACEQMRAD8A9UMyqpZiFUdSdhgMgBZS&#xA;BfJTjvLSRuKTIzeAYE5VHUY5GhIE+9mcUgLIKrlzW7FXYq7FUq1HzJp9lIYt5pl2ZUpQHwJOa7U9&#xA;qYsRr6peTmYdFOYvkEHD5ys2YCaB41P7QIan6sxcfbcCfVEj7W6XZshyIKe29xDcRLLC4kjbowzc&#xA;Y8kZx4omw6+cDE0eapk2LsVad0RGd2CooJZiaAAdSTgJAFlIBJoMU1Hz9bRSGOxgM4G3queKn5Cl&#xA;T+GaLUduRiagOLzdth7KkRczSGtfzCl5gXVopQ9WiYgj6GrX78px9vG/XHbybJ9kCvTL5ss0/UbP&#xA;ULYXFq/OM7EdCp8GHY5vsGohljxQNh1ObDLHKpBE5c1OxV2KofUNQtNPtJLu7kEcMYqzH8AB3Jyr&#xA;PnhigZSNANmLFLJIRiN3neq/mVqs0hXTkW1hH2WYCSQ+5r8I+VM5PU+0GWR/djhHzP6nocHY+OI9&#xA;fqP2IO2/MLzNFIGknS4XukkaAf8ACBDmPj7c1MTuRL3gfopun2VgI2FfH9bO/LPmyy1uMoF9G8jF&#xA;ZICa1H8ynuM6bs/tOGpFcpjp+p0Ws0MsBvnHvT3Nm4LsVdirsVY55y842/l+2VUUTahOCYIT0A6c&#xA;3p+zX7813aHaA08e+Z5D9Ln6HQnOe6I5vI9V8xa1qsjPfXckinpEDxjHyQUXOTz6vJlNykT93yep&#xA;w6XHiHpH60FBcXFvIJYJXhkXo8bFWH0jKIzMTYNFulESFEWzvyh+ZV3FPHZa3J61s5CpeN9uMn+c&#xA;/tL79Rm90HbEgRHKbHf3e90uu7KiRxY9j3d71EEEAg1B6HOnebdirFNSv5Lqdt/3KkiNe1PH6c5P&#xA;W6o5Z/0Ryd1gwiEfNCZht7IdCvpJkaCU8njFVY9Svv8ALOi7L1RmDGXMOr1mERNjqmubZwnYqlnm&#xA;K/ez013jPGWQiNG8K1JP3DNf2lqDixEjmdnK0eITyUeQ3YJ1zj3oWsVTzypfvDqAtif3NxUU7BwK&#xA;g/hTNt2RqDHLwfwy+9wO0MQlDi6hmedU6N2KsR8/alJHDDYRmgmrJN7qpoo+/f6M0HbmoIiMY67l&#xA;3HZWEEmZ6cmEZzDvHYqnflDUpLPWYo6/uboiKRexLbIfobNn2VqDjzAdJbfqcHtDCJ4iesd3pWdm&#xA;8y7FXYq82/MzU5JdSh05T+5t0Ejr4yP4/JenzzkPaHUE5Bj6RF/E/sek7GwgQM+p+5hmc87l2Kon&#xA;TNQn0+/gvITSSFw1PEd1PsRtl2nzyxTE48w1ZsQyQMT1e4xyLJGsi7q4DKfYiuekxkCLDxBFGl2F&#xA;DsVdirwPzRqkmp69e3bmqtIyRDwjQ8UH3DOD1uY5cspef2PbaPCMeKMfJK8xXJdirsVe0/lzqkt/&#xA;5Xh9Vi0lq7WxY9SEAZfuVgM7PsjMcmAXzjs8j2phEMxr+Ldk+bN1zDJ4XhmeJxRkJBzisuMwkYnm&#xA;HfwkJAELMgyTjy5C3qyz0+ELwB8SSD/DNz2PjPEZdKpwNdPYBPs37rXYqkvm23eXSw6ivouHb/VI&#xA;K/xzU9s4zLDY/hLn9nTAyV3hhWcq7x2Kpp5at3m1eEgfDFWRz4ADb8aZsOy8ZlnHlu4mtmI4j5s7&#xA;zsHn3Yqwf8woJBdWlxT92yGOvupr/wAbZzPb0Dxxl0qne9kTHDIebEs5927sVTDy/bPca1ZxoK0l&#xA;V2/1UPJvwGZegxmeaIHf927j6uYjikfJ6rndvJuxV2KvLPzHtZIvMJmYfBcRIyN2+EcCPwzie3sZ&#xA;jqL6SA/U9T2RMHDXcWLZpXaOxVdFG8siRRjk7sFRR3JNAMMYmRAHMsZEAWXu1tEYbeKImpjRUJ/1&#xA;RTPTMceGIHcHhpyskqmTYuxV2KvnjU7eS21K6t5BSSKZ0b5qxGefZoGMyD0Je7wyEoAjqENlTY7F&#xA;XYq9d/Km1eLy3JKwoLi4d091VVT/AIkpzrew4VhJ75PLdszvMB3Bmebl1KEvtMtrujPVZBsHXr9P&#xA;jmHqdFDNudj3t+HUShy5IKPy3CGq8zMvgAF/GpzCh2PEHeRIciWvNbBNYYYoYxHEoVF6AZtseOMB&#xA;wxFBwpSMjZX5Ni7FWnRXRkcBlYEMp6EHBKIIo8kg0bDFdR8oziRnsWDxk1ETGjD2BOxznNT2NIG8&#xA;e47nb4e0RVT5oOHyrrEjgPGsS92ZlP8AxEtmNDsjOTuK+P6m6XaGIDY2ynSdIt9OgKRnnI+8kp6n&#xA;+gzodHo44I0NyeZdTqNRLKbPJHZmOO7FUHq2l2+p2T2s+wO6OOqsOjDMfVaaOaBjJuwZ5YpcQee6&#xA;j5W1mykI9Bp4q/DLEC4I9wNx9OcjqOzM2M8uId4ejw67FMc6PmhrbQ9XuXCRWkpJ7spVR82agynH&#xA;os0zQiWyeqxxFmQZ15Z8srpSNNMRJeSCjEfZRf5V/ic6js7s4YBct5n7HQ63W+KaH0hPc2jgOxV2&#xA;KpP5n8uwa5YeizencRHlbzdeJPUH2bvmB2joI6mFcpDkXM0WrOCd9DzeU6nomqaZKY723aOhoJKV&#xA;Rv8AVYbHOH1Gky4TUxX3fN6rDqYZRcTaEhgmnkEcMbSyHoiAsx+gZRCBkaAstspCIsmnoHkvyTPa&#xA;zpqWpoFlTe3tjuVP87+47DOp7J7IlCQyZOfQfpLoO0e0RIcEOXUs5zpXRuxV2KuxV5v+ZPk6eSZt&#xA;b0+MyVA+uwqPiHEU9UDuKfa+/wAc5ztjs8k+LAe/9bv+ytcAPDl8P1PN85x6B2Kpp5d8uahrl8tt&#xA;aoRGCPXuCPgjXxPv4DvmVpNJPPLhjy6nucbVaqOGNy+A73umn2NvYWMFlbjjDAgRAetB3Puc7jFi&#xA;GOIiOQeNy5DORkeZRGWNbsVYzqX5keT9O85ad5Nub4f4i1NS9tZIjuQoVmrIygqlQhI5HfFWTYq7&#xA;FXYq7FUu8weYtD8u6VPq2t3sWn6dbgGW5mbioqaADuWJ2Cjc9sVYn5R/PX8qvN2qrpOha9HPqT19&#xA;G2mintmlpv8Au/XSMOaCvEb07Yqz3FXYq7FXnfmr/nIL8pPK+tPoura6q6hA3C6jghnuBCwNCsjQ&#xA;o6hh3UHkO4xVm2h67o+vaVb6to15Ff6bdLyguoGDIwBoR7EEUIO4OxxVHYq8xvv+cl/ySsb24srn&#xA;zIEubWR4Z0FnfOA8bFWAZIGVtx1BpirOfK3mnQvNWhWuvaDdfXNJvOf1a54SRcvSkaJ/glVHFHRh&#xA;uuKprirsVeT+cP8AnJj8u/LOvXeh+jqOs3un8v0i2lQJPFbsn21keSWIVT9rjUA7HfbFWc+SfO/l&#xA;rzv5ei1zy/c/WrCUtG4ZSskci05xSofssKjbwIIqCDiqehYo1JAVF6sQABt44BEDkkkl4xqn/OWn&#xA;5XWd/c29rb6rqtrZuEudUsLZHtFq3GvOSWJuNRsQtD2rhQ9V8seZtE8z6Faa7olyt3pl6nOCZajo&#xA;SrKymhVlYFWB6HFU0xVZPPBbwSTzyLFBEpeWVyFREUVZmY7AAbknFUg8j+f/ACv530u41Ty3dG8s&#xA;bW5eylmMbxj1o0R2ADhSRxlU1G2KpB59/Pj8tPI2prpWuakx1MqHks7aJ53iVhVTLx+FKjfiTypv&#xA;SmKorSbH8t/P2kxeYNEdLm0uSQLq1LRNzX7SyRkDi47hlrmvz9mYMhsij5bOdh7RzYxQNjzRUH5X&#xA;+VYpA7pNMB+xJJ8P/CBT+OUx7FwA9T8W6Xa+cjoPgxTWP+ciPyV8o6o/l46hSW1cxXIsbd5YYpAa&#xA;MrugozD9rjy9982ePFGAqIoOuyZJTNyNlnUvn3ydF5RHnB9VgHloxCcanUmMoTxAAA5F+Xw8KcuX&#xA;w0rtk2DFPJn/ADkP+Vnm/XE0TStTdNRmqLWK6heATEdo2YcS3gpIJ7DFWa+Z/L9v5h0C+0S4ubi0&#xA;gv4zFJc2biK4QEg1jcq4U7eGKvlay/LzSPIX/OVnlXRtLu7y9gmiN5JcahIks5klhuVarokQI+Ad&#xA;q4q+vcVdirsVdirzD86vyp1j8xLjyvaRXsEHl/TL43euWcxkDXCVjVRHwUjkI/VHxEfaxV5d+eEP&#xA;lLUvzL8i+VvIVnajzbpuoI92+mxJGtrBG6OqTNCFA9PgX4/sAHpXdV9QYq7FVsiu0bKjcHIIV6Vo&#xA;SNjQ9aYq+e9Q8ueRvyK8l6gNZ0u487ah5iluHnvGtIzyVUT91cOzP6UXJi3Lckk7bYqjv+cUn03y&#xA;9+TJvtU1mzS2vNSmuOT3CKltzjiiWCVnYKkh9Lnx/wArFXqt9598sjRNWv8AStUs9Tm0uynvpLe0&#xA;uIp34QRl6lY2Y0qKYq+VPyq1bzB5d/LyfVZvyqTzTYC6uL7U9dvhF6nEcVcRJJDLLwjWMlmFVry2&#xA;2OKvqP8AK3zV5X80+SNP1jyzapYaXKHUaeiJF9XlVz6sZSP4QedW2615d8VZXiqW+ZdRl0zy5qup&#xA;QistlZ3FzGAORLRRM4277rir5J/5x980fmdZ+UNXbyP5Oh1+4ku3uNe1i+mCmZig4WsSl42kZVq5&#xA;+Jt36biqr1b8iPPP5Taf+X2q63ZWC+TYre9WPzFZzz3E0Ud04CRuhmZyqv0ACrQilNqlVlmqfmH5&#xA;N88+WfMXlzybrttqOv3ekXy2lvAzc+bQNGjVIFKO64q8f/I382vyt8qfk7feXvMxW11e0kvF1TR5&#xA;oX9a9aViAoXjQkpSEhvs8d6DFU9/5wov7mTyHrmny8vTs9T5xBv2fWhTko8N46/Tir6JxV5x+bv5&#xA;OaB5+gW71bU9UsxYW0ira2E8cUEn+7AZUkil5EEYqwf/AJwq/wDJWar/ANty4/6g7TFVD/nGmxs9&#xA;c82fmV5n1KCO51K61WS0DyqHKQM8jPEpb9lgVUjwUYqhvyH1fRfJnnP82dKvLuHTfK+k6nHLA8zC&#xA;KC3ElxNAq1Ow5fu0+gYq9l078wfJfmg3OleWfMljd6s9vI0QtZkmkj24+rwU7hGYYq8rTRfIn5F/&#xA;lFqukeZ7u21fUNYNwfRWILPfNIgRI/TZnbhHQVYnivXqd1XkupeW/MWmfk7+XXk/XFltI/M/mN7p&#xA;7RyUdLdzHFGrjqvL1mk4+4rvir1L/nLfRtP0byV5Y8xaRbw2WpeX9Vt4dOkjVU9OH0pJFjUKBssk&#xA;EZA7UOKvobFXzx5z0LW5v+ctvKmqw6fcyaXDZIs1+kMjW6N6d0KNKBwB+IdT3xV9D4q7FXYq7FXh&#xA;/wDzlH5785aFoWm6H5Wiu0uNaaX6/qVlE8ksFtFxBWMpTi8hk61BoDQitQqwz8pPzG/LrySlvpmi&#xA;eQ/MI1G+eOG91u7tkaeVnYAs78vgjB34Lt8zvir6jxV2KqF/DPPY3ENvKYJ5YnSKcblHZSFcf6p3&#xA;xV84eTvz68zeRLDUfLH5paPrGo+YrSeQ2d5DCsyXUTbKvNjGOPL7LryBU+I3VRP5H/ky2t+R/Ma+&#xA;etHk0/SvMuppqFloXKS3aFIeZRuKlHRSZOKg0JCg9KYq9B0r8k/LnkbTdbv/AMubU2Hme70+W3sp&#xA;7iaSeP1ftxBlmZ0p6iLvTFXm9j/zkl5hsfJ935d83eWNWn/MIJNbJClmEguHlLCFiq8SoAIB4IeV&#xA;Kjrsq9E/5xv8iaz5M/K+00/WYzBqV5PLfz2p+1D6wVUjb/K4ICw7E07Yq9QxVRvbSG8s57OcEw3M&#xA;bwygbHjIpVqfQcVfMH5deZPPv5JWes+S9U8lanr0Iu5bvR9T02J3hn5qsYDOquArCNW7utaFcVZb&#xA;+Q/5Q3j+T/MNx+YelIZfN1+t/Pos68QiRs0kbOgIKMZJGPA/ZAFd6jFXo+k/lR5I8uPdX3lPSLXR&#xA;taltpbeC/iQkoZBsSGLAgMqmlO2KvCIvOnnvS/0ja+bPysbXPzKjlddJ8y2+lQPGxYcYpPXjhqwj&#xA;apDI242PHfFXrf8Azjx+W+o+Q/y9jsdWoNa1K4fUNRQMH9N5FVFiLDqVSMcu3KtK9cVem4qhtTR5&#xA;NNu40BZ3hkVVHUkqQAMVeO/84l+V/MXlv8udRsdf0240u8k1iaeO3uo2idomtbZQ4VqfCWRhX2xV&#xA;jFm/nv8AJj8wfNrWXlLUPM/lXzPc/XtNfTVaQwzszN6bCNJOG8pj+Ib8VIriqf8A5J/lPf3miebN&#xA;Z/MbSk+u+eb5by70e4BPpwxStcRBxXkh9WQnh2CrXwCrPbL8uPI3kqG/1/yt5agh1i3s5/RS1V/V&#xA;movMQrux/eMgGwxV81+Uf+Vk2Hmu984ecPys1fzh5nuJvVtbu6eWKC1UGqrDbm2nUcD9k1oopxA6&#xA;lV6V+ZWk+fvzV/K221uHyzceXPNvl7VPrdjo1zJzlmiiQcmQyR24qS3JRx34UG5xVIfNd1+Y/wCe&#xA;F55b8r3Xky/8s6LYXkd95ivtQjkjj5ohRlh9RI+XwSOFXcksK0Arir//2Q==</xmpGImg:image>
               </rdf:li>
            </rdf:Alt>
         </xmp:Thumbnails>
      </rdf:Description>
      <rdf:Description rdf:about=""
            xmlns:xmpMM="http://ns.adobe.com/xap/1.0/mm/"
            xmlns:stRef="http://ns.adobe.com/xap/1.0/sType/ResourceRef#"
            xmlns:stEvt="http://ns.adobe.com/xap/1.0/sType/ResourceEvent#">
         <xmpMM:InstanceID>xmp.iid:9BD0B0153013E411BEDAD1AAF8E34EA0</xmpMM:InstanceID>
         <xmpMM:DocumentID>xmp.did:9BD0B0153013E411BEDAD1AAF8E34EA0</xmpMM:DocumentID>
         <xmpMM:OriginalDocumentID>uuid:5D20892493BFDB11914A8590D31508C8</xmpMM:OriginalDocumentID>
         <xmpMM:RenditionClass>proof:pdf</xmpMM:RenditionClass>
         <xmpMM:DerivedFrom rdf:parseType="Resource">
            <stRef:instanceID>xmp.iid:CF8F8012FB05E41194BDE5B108BC4427</stRef:instanceID>
            <stRef:documentID>xmp.did:CF8F8012FB05E41194BDE5B108BC4427</stRef:documentID>
            <stRef:originalDocumentID>uuid:5D20892493BFDB11914A8590D31508C8</stRef:originalDocumentID>
            <stRef:renditionClass>proof:pdf</stRef:renditionClass>
         </xmpMM:DerivedFrom>
         <xmpMM:History>
            <rdf:Seq>
               <rdf:li rdf:parseType="Resource">
                  <stEvt:action>saved</stEvt:action>
                  <stEvt:instanceID>xmp.iid:CF8F8012FB05E41194BDE5B108BC4427</stEvt:instanceID>
                  <stEvt:when>2014-07-08T14:35:54-04:00</stEvt:when>
                  <stEvt:softwareAgent>Adobe Illustrator CS6 (Windows)</stEvt:softwareAgent>
                  <stEvt:changed>/</stEvt:changed>
               </rdf:li>
               <rdf:li rdf:parseType="Resource">
                  <stEvt:action>saved</stEvt:action>
                  <stEvt:instanceID>xmp.iid:9BD0B0153013E411BEDAD1AAF8E34EA0</stEvt:instanceID>
                  <stEvt:when>2014-07-24T08:47:08-04:00</stEvt:when>
                  <stEvt:softwareAgent>Adobe Illustrator CS6 (Windows)</stEvt:softwareAgent>
                  <stEvt:changed>/</stEvt:changed>
               </rdf:li>
            </rdf:Seq>
         </xmpMM:History>
      </rdf:Description>
      <rdf:Description rdf:about=""
            xmlns:illustrator="http://ns.adobe.com/illustrator/1.0/">
         <illustrator:StartupProfile>Print</illustrator:StartupProfile>
      </rdf:Description>
      <rdf:Description rdf:about=""
            xmlns:xmpTPg="http://ns.adobe.com/xap/1.0/t/pg/"
            xmlns:stDim="http://ns.adobe.com/xap/1.0/sType/Dimensions#"
            xmlns:xmpG="http://ns.adobe.com/xap/1.0/g/">
         <xmpTPg:HasVisibleOverprint>False</xmpTPg:HasVisibleOverprint>
         <xmpTPg:HasVisibleTransparency>False</xmpTPg:HasVisibleTransparency>
         <xmpTPg:NPages>1</xmpTPg:NPages>
         <xmpTPg:MaxPageSize rdf:parseType="Resource">
            <stDim:w>111.693848</stDim:w>
            <stDim:h>28.293457</stDim:h>
            <stDim:unit>Points</stDim:unit>
         </xmpTPg:MaxPageSize>
         <xmpTPg:PlateNames>
            <rdf:Seq>
               <rdf:li>Cyan</rdf:li>
               <rdf:li>Magenta</rdf:li>
               <rdf:li>Yellow</rdf:li>
               <rdf:li>Black</rdf:li>
            </rdf:Seq>
         </xmpTPg:PlateNames>
         <xmpTPg:SwatchGroups>
            <rdf:Seq>
               <rdf:li rdf:parseType="Resource">
                  <xmpG:groupName>Default Swatch Group</xmpG:groupName>
                  <xmpG:groupType>0</xmpG:groupType>
               </rdf:li>
            </rdf:Seq>
         </xmpTPg:SwatchGroups>
      </rdf:Description>
      <rdf:Description rdf:about=""
            xmlns:pdf="http://ns.adobe.com/pdf/1.3/">
         <pdf:Producer>Adobe PDF library 10.01</pdf:Producer>
      </rdf:Description>
   </rdf:RDF>
</x:xmpmeta>
                                                                                                    
                                                                                                    
                                                                                                    
                                                                                                    
                                                                                                    
                                                                                                    
                                                                                                    
                                                                                                    
                                                                                                    
                                                                                                    
                                                                                                    
                                                                                                    
                                                                                                    
                                                                                                    
                                                                                                    
                                                                                                    
                                                                                                    
                                                                                                    
                                                                                                    
                                                                                                    
                           
<?xpacket end="w"?>
	</metadata>
<path fill="#FFD27F" d="M1.035,18.622c0,2.484,2.015,4.499,4.5,4.499c2.486,0,4.5-2.018,4.5-4.499c0-2.488-2.014-4.501-4.5-4.501
	C3.05,14.121,1.035,16.135,1.035,18.622z"/>
<circle fill="#F9BC60" cx="25.933" cy="18.521" r="5.5"/>
<path fill="#F3A747" d="M40.45,18.621c0,3.312,2.686,6,5.999,6c3.315,0,6.001-2.688,6.001-6c0-3.313-2.686-6-6.001-6
	C43.135,12.621,40.45,15.308,40.45,18.621z"/>
<path fill="#EC9425" d="M64.249,18.526c0,3.584,2.909,6.496,6.497,6.496c3.593,0,6.503-2.91,6.503-6.496
	c0-3.595-2.91-6.504-6.503-6.504C67.158,12.02,64.249,14.931,64.249,18.526z"/>
<path fill="#E08026" d="M91.007,18.627c0,4.138,3.359,7.494,7.497,7.494c4.146,0,7.503-3.357,7.503-7.494
	c0-4.148-3.357-7.506-7.503-7.506C94.366,11.121,91.007,14.479,91.007,18.627z"/>
<g>
	<path d="M3.943,28.718c1.029,0.012,2.005-0.342,2.187-1.242h0.997v7.502H5.786v-5.295H3.943V28.718z"/>
</g>
<g>
	<path d="M28.455,35.076h-5.051c0.01-1.216,0.634-2.136,1.627-2.8c0.962-0.698,2.208-1.278,2.23-2.432
		c0.01-0.529-0.212-1.311-1.247-1.311c-0.951,0-1.237,0.813-1.269,1.85H23.54c0-1.639,0.898-2.854,2.546-2.854
		c1.809,0,2.378,1.318,2.378,2.271c0,1.173-0.803,1.9-1.648,2.494c-0.856,0.592-1.753,1.047-1.965,1.699h3.604L28.455,35.076
		L28.455,35.076z"/>
</g>
<g>
	<path d="M40.927,30.691c0.805,0.031,1.641-0.254,1.641-1.164c0-0.623-0.487-1.047-1.153-1.047c-0.834,0-1.248,0.752-1.227,1.515
		h-1.206c0.063-1.438,0.963-2.519,2.454-2.519c1.152,0,2.338,0.666,2.338,1.979c0,0.739-0.338,1.332-1.048,1.586v0.021
		c0.835,0.169,1.343,0.898,1.343,1.853c0,1.396-1.206,2.264-2.623,2.264c-1.712,0-2.57-1.037-2.603-2.58h1.206
		c-0.031,0.898,0.454,1.574,1.396,1.574c0.805,0,1.417-0.477,1.417-1.32c0-1.151-0.984-1.301-1.936-1.258V30.691z"/>
	<path d="M44.911,31.58h3.078v1.142h-3.078V31.58z"/>
	<path d="M49.805,27.623h3.827v1.08h-2.93l-0.38,1.881l0.021,0.022c0.326-0.36,0.865-0.563,1.363-0.563
		c1.471,0,2.316,1.059,2.316,2.476c0,1.186-0.739,2.653-2.56,2.653c-1.428,0-2.538-0.771-2.591-2.252h1.206
		c0.074,0.795,0.583,1.248,1.364,1.248c1.026,0,1.375-0.729,1.375-1.629c0-0.813-0.436-1.543-1.406-1.543
		c-0.507,0-1.005,0.158-1.195,0.676h-1.205L49.805,27.623z"/>
</g>
<g>
	<path d="M66.909,29.175c-0.056-0.615-0.466-1.036-1.104-1.036c-1.339,0-1.49,1.599-1.564,2.593l0.021,0.021
		c0.336-0.592,0.963-0.896,1.633-0.896c1.502,0,2.389,1.091,2.389,2.538c0,1.471-1.006,2.583-2.52,2.583
		c-2.228,0-2.757-1.751-2.757-3.953c0-1.805,0.715-3.912,2.854-3.912c1.199,0,2.216,0.832,2.279,2.063L66.909,29.175L66.909,29.175z
		 M67.05,32.375c0-0.812-0.441-1.545-1.326-1.545c-0.897,0-1.362,0.713-1.362,1.545c0,0.817,0.466,1.576,1.362,1.576
		C66.605,33.951,67.05,33.184,67.05,32.375z"/>
	<path d="M69.175,31.304h3.146v1.167h-3.146V31.304z"/>
	<path d="M74.586,32.914c0.056,0.617,0.464,1.039,1.104,1.039c1.34,0,1.49-1.6,1.563-2.593l-0.021-0.021
		c-0.323,0.584-0.939,0.908-1.633,0.908c-1.428,0-2.389-1.006-2.389-2.551c0-1.47,0.95-2.582,2.604-2.582
		c2.139,0,2.668,1.75,2.668,3.952c0,1.806-0.713,3.911-2.854,3.911c-1.196,0-2.215-0.833-2.278-2.063h1.231v-0.002H74.586z
		 M74.443,29.683c0,0.82,0.422,1.59,1.318,1.59c0.915,0,1.37-0.757,1.37-1.59c0-0.811-0.452-1.545-1.37-1.545
		C74.866,28.138,74.443,28.863,74.443,29.683z"/>
</g>
<g>
	<path d="M85.578,28.71c0.99,0.011,1.929-0.332,2.104-1.197h0.959v7.223h-1.289v-5.098h-1.773L85.578,28.71L85.578,28.71z"/>
	<path d="M96.132,31.125c0,1.642-0.423,3.758-2.494,3.758c-2.074,0-2.498-2.116-2.498-3.758c0-1.644,0.424-3.758,2.498-3.758
		C95.709,27.367,96.132,29.482,96.132,31.125z M94.955,31.125c0-1.508-0.289-2.776-1.317-2.776c-1.033,0-1.322,1.271-1.322,2.776
		s0.289,2.774,1.322,2.774C94.666,33.9,94.955,32.63,94.955,31.125z"/>
	<path d="M97.006,31.371h3.003v1.114h-3.003V31.371z"/>
	<path d="M105.848,34.736h-4.934c0.009-1.188,0.618-2.086,1.589-2.735c0.938-0.681,2.156-1.248,2.181-2.373
		c0.008-0.517-0.207-1.278-1.221-1.278c-0.93,0-1.207,0.795-1.236,1.809h-1.179c0-1.602,0.878-2.785,2.485-2.785
		c1.766,0,2.321,1.291,2.321,2.219c0,1.145-0.782,1.856-1.607,2.438c-0.838,0.577-1.714,1.021-1.919,1.66h3.52V34.736z"/>
	<path d="M111.611,31.125c0,1.642-0.424,3.758-2.498,3.758c-2.072,0-2.496-2.116-2.496-3.758c0-1.644,0.423-3.758,2.496-3.758
		C111.188,27.367,111.611,29.482,111.611,31.125z M110.438,31.125c0-1.508-0.289-2.776-1.321-2.776
		c-1.031,0-1.321,1.271-1.321,2.776s0.29,2.774,1.321,2.774C110.146,33.9,110.438,32.63,110.438,31.125z"/>
</g>
</svg>
