<?xml version="1.0" encoding="utf-8"?>
<!-- Generator: Adobe Illustrator 16.0.0, SVG Export Plug-In . SVG Version: 6.00 Build 0)  -->
<!DOCTYPE svg PUBLIC "-//W3C//DTD SVG 1.1//EN" "http://www.w3.org/Graphics/SVG/1.1/DTD/svg11.dtd">
<svg version="1.1" id="Layer_1" xmlns="http://www.w3.org/2000/svg" xmlns:xlink="http://www.w3.org/1999/xlink" x="0px" y="0px"
	 width="128.5px" height="108.173px" viewBox="0 0 128.5 108.173" enable-background="new 0 0 128.5 108.173" xml:space="preserve">
<metadata><?xpacket begin="﻿" id="W5M0MpCehiHzreSzNTczkc9d"?>
<x:xmpmeta xmlns:x="adobe:ns:meta/" x:xmptk="Adobe XMP Core 5.3-c011 66.145661, 2012/02/06-14:56:27        ">
   <rdf:RDF xmlns:rdf="http://www.w3.org/1999/02/22-rdf-syntax-ns#">
      <rdf:Description rdf:about=""
            xmlns:dc="http://purl.org/dc/elements/1.1/">
         <dc:format>image/svg+xml</dc:format>
         <dc:title>
            <rdf:Alt>
               <rdf:li xml:lang="x-default">Print</rdf:li>
            </rdf:Alt>
         </dc:title>
      </rdf:Description>
      <rdf:Description rdf:about=""
            xmlns:xmp="http://ns.adobe.com/xap/1.0/"
            xmlns:xmpGImg="http://ns.adobe.com/xap/1.0/g/img/">
         <xmp:MetadataDate>2014-07-24T08:47:08-04:00</xmp:MetadataDate>
         <xmp:ModifyDate>2014-07-24T08:47:08-04:00</xmp:ModifyDate>
         <xmp:CreateDate>2014-07-24T08:47:06-04:00</xmp:CreateDate>
         <xmp:CreatorTool>Adobe Illustrator CS6 (Windows)</xmp:CreatorTool>
         <xmp:Thumbnails>
            <rdf:Alt>
               <rdf:li rdf:parseType="Resource">
                  <xmpGImg:width>244</xmpGImg:width>
                  <xmpGImg:height>256</xmpGImg:height>
                  <xmpGImg:format>JPEG</xmpGImg:format>
                  <xmpGImg:image>/9j/4AAQSkZJRgABAgEASABIAAD/7QAsUGhvdG9zaG9wIDMuMAA4QklNA+0AAAAAABAASAAAAAEA&#xA;AQBIAAAAAQAB/+4ADkFkb2JlAGTAAAAAAf/bAIQABgQEBAUEBgUFBgkGBQYJCwgGBggLDAoKCwoK&#xA;DBAMDAwMDAwQDA4PEA8ODBMTFBQTExwbGxscHx8fHx8fHx8fHwEHBwcNDA0YEBAYGhURFRofHx8f&#xA;Hx8fHx8fHx8fHx8fHx8fHx8fHx8fHx8fHx8fHx8fHx8fHx8fHx8fHx8fHx8f/8AAEQgBAAD0AwER&#xA;AAIRAQMRAf/EAaIAAAAHAQEBAQEAAAAAAAAAAAQFAwIGAQAHCAkKCwEAAgIDAQEBAQEAAAAAAAAA&#xA;AQACAwQFBgcICQoLEAACAQMDAgQCBgcDBAIGAnMBAgMRBAAFIRIxQVEGE2EicYEUMpGhBxWxQiPB&#xA;UtHhMxZi8CRygvElQzRTkqKyY3PCNUQnk6OzNhdUZHTD0uIIJoMJChgZhJRFRqS0VtNVKBry4/PE&#xA;1OT0ZXWFlaW1xdXl9WZ2hpamtsbW5vY3R1dnd4eXp7fH1+f3OEhYaHiImKi4yNjo+Ck5SVlpeYmZ&#xA;qbnJ2en5KjpKWmp6ipqqusra6voRAAICAQIDBQUEBQYECAMDbQEAAhEDBCESMUEFURNhIgZxgZEy&#xA;obHwFMHR4SNCFVJicvEzJDRDghaSUyWiY7LCB3PSNeJEgxdUkwgJChgZJjZFGidkdFU38qOzwygp&#xA;0+PzhJSktMTU5PRldYWVpbXF1eX1RlZmdoaWprbG1ub2R1dnd4eXp7fH1+f3OEhYaHiImKi4yNjo&#xA;+DlJWWl5iZmpucnZ6fkqOkpaanqKmqq6ytrq+v/aAAwDAQACEQMRAD8AV8+f85mzWv6Q0ny5oBh1&#xA;KGSW2XULyVXSNkYpzWFF+PpUcmp4g4qxT/nDS6uLv83dburmRpbm40a6lmlY1Z3e9tWZifEk1xV9&#xA;n4q7FXYq7FXYq7FXYq7FXYq7FXYq7FXYq7FXYq7FXYq7FXYq7FXYq7FXYq7FWO6lrU0rtHbsUiG3&#xA;MbM3vXsM5zWdpSkeGBqP3u1waQAXLcpZzctyLHl413zWcRu73cugmGn6zPA4WZjJCetd2HuDmw0n&#xA;aM4GpG4uNm0sZCxsWSKysoZTVWFQR3BzpQQRYdSRTeFDF/Nnljy1/hrWZv0TZ+r9TuX9T6vFy5ek&#xA;x5V41rXFXyn/AM4Vf+TT1X/th3H/AFGWmKvtTFXYq7FXYq7FXYq7FXYq7FXYq7FXYq7FXYq7FXYq&#xA;7FXYq7FXYq7FXYq7FUJq0jR6dOy7GgX/AIIgfxzE18zHDIj8Xs36aN5AxTOSd07FXYqyfRJGfTkr&#xA;+ySo+QOdT2ZInCL6On1YrIUfme4yVebP+UV1n/mBuf8Aky2KvkD/AJwq/wDJp6r/ANsO4/6jLTFX&#xA;2pirsVdirsVdirsVdirsVdirsVdirsVdirsVdirsVdirsVdirsVdirsVdiqldwevbSQ9C60B9+34&#xA;5TqMXiQMe9sxT4ZAsPdGRyjjiymjA9iM46UTE0ebvQQRYawK4AkgAVJ2AxAtWW6dbG2s44j9sCr/&#xA;ADO+dfo8Ph4xE83R58nHMlE5ktSD1qxkv9Gv7GNgkl3bywIzV4hpEKgmnbfFXhv5Af8AOO/mf8tv&#xA;ON5rmq6lZXlvc6dJYpFamXmHknhlDH1EQcaQnvir37FXYq7FXYq7FXYq7FXYq7FXYq7FXYq7FXYq&#xA;7FXYq7FXYq7FXYq7FXYq7FXYqgr7Sra7+I/BL/vxe/zHfMLVaCGbflLvcjDqZQ25hLv8Nzcv75eP&#xA;jQ1+7Nb/ACNK/qDl/nx3I+x0e3tWEhPqSjox2A+QzYaXs+GI3zk4ubVSntyCPzPcZ2KuxV2KuxV2&#xA;KuxV2KuxV2KuxV2KuxV2KuxV2KuxV2KuxV2KuxV2KuxV2KuxV2KuxV2KuxV2KuxV2KuxV2KuxV2K&#xA;uxV2KuxV2KuxV2KuxV2KuxV2KuxV2KuxV2KuxV2KuxV2KuxV2KuxV2KuxVZNPBAnOaRY0/mYgD8c&#xA;hPJGAuRoMowMjQFoH/EWi8uP1kV/1Wp99KZifynp7ri+9yPyWX+ajbe5t7hOcEiyr3KkGnzpmVjy&#xA;xmLiQWicJRNEUqZYwdirxX88/wDnJCw/L28XQNHs01XzO6LJLHIzCC2VxWP1eHxO7jcICNtyelVX&#xA;l8//ADk9+fnl8w6h5o8oRQaTcMOP1ixvbJWB34xTSOyg08Q22Kvo/wDLL8x9D/MHyrB5g0nlGrM0&#xA;N3ZyEGS3nSnKN6bHYhlPdSDt0xVleKuxV2KuxV2KuxV2KuxV2KuxV2KuxV2KuxV2KuxV2KuxV2Ku&#xA;xV2KuxVC6nqEVhaPcSbkbIn8zHoMxtVqRhgZFuwYTklwhgV7fXN7MZrhyzH7I7KPADOOz6ieWXFI&#xA;vQ4sUYCoofKWxWtbu4tZhNA5jkHcd/YjvlmLNLHLiiaLDJjjMUQzvR9UTUbMSgcZV+GVPBvb2Odh&#xA;otWM8OLr1ef1OA45V0R2Zjjvl3yr+Sf5jXX/ADkXN5z81aNTy+NSvL6G6a5tZRRBJ9R/dpK0vwkR&#xA;8fh2oK4q9k/Pu60S3/J/zUdY4fV5LCWK3V6Gt24pa8Qf2hPwP0VxV5B/zg7DqI0bzZPJy/Rz3Nol&#xA;t14+uiSmanavB4q4q+ncVdirsVdirsVdirsVdirsVdirsVdirsVdirsVdirsVdirsVdirsVdirFf&#xA;OkzGa2g/ZClyPcmn8M5ztyZ4ox+Lt+zI7EsazRO0dirsVT/ydMy38sX7EkdSPdSKfrObnsSZGUx6&#xA;EOu7SjcAfNmGdO6Vg35q/m/5U/LfSFvNXdp7+5DDT9KhI9edl6nfZI1/ac9O1Ttir5oi0v8AOH/n&#xA;I3Xor69H6I8m2sp9FyGFpCvRvRU0a5n49W6V2qg2xV9Y+RfJGheSfLFp5d0SMpZ2oJaR6GSWVt3l&#xA;kYAVZj/QbAYqn+KuxV2KuxV2KuxV2KuxV2KuxV2KuxV2KuxV2KuxV2KuxV2KuxV2KuxVjXnO1YrB&#xA;dKKqtY3PhXdf45oO3MJIjMe52vZmTnFiuc87Z2KuxVknk21Y3E90R8Cr6anxZiCfuAzediYSZSn0&#xA;Ap1naWT0iPxZXnSOnfnT58/MBfMX5tX3mfXLQ6rp0V6Vi0t5GhRrS3crDByAYopUDnxG5LdCa4q9&#xA;ctP+c2LuztYrS08mWtvawII4IIrtkREUUVVVYQAAOwxV7B+Qn543X5pfp36xpEelfof6rx9OYzep&#xA;9a9atapHx4+h+OKvWsVdirsVdirsVdirsVdirsVdirsVdirsVdirsVdirsVdirsVdirsVdiqnc28&#xA;NxA8Ey8o5BRhleXHGcTGXIsoTMTY5sL1Py5fWbs0Sme3/ZdBVgP8oDOV1XZmTEbA4o/jm73BrYTG&#xA;+xSni1eNDy6U75racy0z07y/qF44JQwwftSuKbf5IO5zP03ZuXKeXDHvLi5tZCA52Wa2dnBZ26W8&#xA;IoifeT3JzrMGGOKIjHkHRZMhnLiKtlrW7FXYq7FXYq7FXYq7FXYq7FXYq7FXYq7FXYq7FXYq7FXY&#xA;q7FXYq7FXYq7FXYq7FXYq7FXYq7FXYq7FXYq7FXYq7FXYq7FXYq7FXYq7FXYq7FXYq7FXYq7FXYq&#xA;7FXYq7FXYq7FXYq7FXYq7FXYq7FXYq7FXYq7FXYq7FXYq7FXYq7FXYq7FXYq7FXYq7FXYq7FXYq7&#xA;FXYq7FXYq7FXYq7FXYq7FUPf39tYWr3Ny3GJPvJ7ADxOU588cUTKXINmLFLJLhjzYBq3nHVb12WB&#xA;zaW/7KRmjEf5T9fuzlNV2tlyH0nhj5frehwdnY4Df1FJjd3RfmZnL/zFjX765rvFld2XN8OPKgmu&#xA;l+bdXsnUPKbmD9qKU8jT2Y/EMz9N2rmxnc8Ue4/rcTP2fjmNhwnyegaXqlrqVotzbGqnZlP2lbuD&#xA;nV6bUwzQ4ovPZ8EsUuGSLzIaXyZ+b35vfmJ51/Mx/wAtfy6upbOCG4ayee1cwzTzwg/WHecUZIYu&#xA;LD4TuFJNdgFUh84+QP8AnIX8pdNXzanmuW7s4pE+vSWt3cTpG8rBVaeG5VUkRnKrUqd6VGKvpD8i&#xA;/wAzZfzF8gwa5dRLDqVvM9jqSRgiM3ESq5aMEk8XSRWp2Jpir0HFXYq+M/NXnH84vOv54+YfLXkb&#xA;zBeW0cNzPDbWsd09vbolioikYUPEcmjJ9ycVTf8A5Vd/zmB/1M0//cVbFX0/5QtdYtPKeiWmtymf&#xA;WbewtYtTmL+oXukhVZmL/tcpATXviqbYq7FXYq7FXYq7FXYq7FXYq7FXYq7FXYq7FXYq7FXYqwDz&#xA;3qTzakLJT+5tlBZexkYVr9CkZynbeoMsnB0j970PZeERhxdZfcxnNI7N2KuxVP8AyXqT2urpAT+5&#xA;uv3bD/K6ofv2zbdj6gwzCPSW36nX9pYRPHfWL0bOwebef+UfyM8g+U/Nlx5q0mG4Gr3ImEkk0xkT&#xA;/SG5SEKRsa4q+d/zu/5yl07zt5UuPKvlrTLi1tNQaMX17fmNJPTjdZAiRxvIo5MgqxfptTfFXun/&#xA;ADjT5HPlH8rrWB7yC9n1WeTU5pbSVJ4FaVEiCRyxlkfikK8ippyrTFXqmKobU7+DTtNu9QuDxt7O&#xA;GS4mPSiRKXb8Bir4F/Jrzp5803zlrGreUdB/T/mnVYJUBMckscCTTLLNKyRlerKoBZwB71pir0s/&#xA;85M/nb5J1y3tvzC8vRm0uPi9F4GtJmjFAzQSqWjbjXcEHw2xV9TeW/MOleY9Bsdd0qX1tO1GFZ7e&#xA;SlDxYdGHZlOzDscVTLFXYq7FXYq7FXYq7FXYq7FXYq7FXYq7FXYq7FXYq7FXl3mlWXX70N15g/QV&#xA;BH4ZxHaYI1E773qtCf3MUrzAcp2KuxVG6GpbWrAAVP1iI/QHBOZWiF5of1h97Rqj+6l/VL1jO8eS&#xA;eO/k/wD85G6d+Y/me68vjRpNHura1e6UzXAlL+nIiNGF9OOjDnX6MVR35w/lH+W2ofl5rs76JY6d&#xA;dafY3F3aahawRW0sUkETSLV4wlUJWjK2x+e+KvIP+cRr3XtY8m+ffKVvPwjNsr6bI7MqQXN5FNCT&#xA;yUMVDGNG26UJocVQf/Qq35+/9TdY/wDcR1H/ALJ8Vetflp5R1j8rfyz8yH8yL2HW7IySXV0IWmv0&#xA;Nm0KRSRulxHGWBo3JaUpiqf/AJOeavyk8xwapc/l7pdtpot2ij1IW9lFYu/IM0XMRqpYfbpX3xVi&#xA;n/OYdrpcn5Rme7VfrkGoW36Oc05CV+QdQetDFzqPb2xVG/8AOJRuj+S2nCbl6YurwW3Lp6frEnj7&#xA;epy+nFXsmKuxV2KuxV2KuxV2KuxV2KuxV2KuxV2KuxV2KuxV2KsL8+aO/qJqcS1QgR3FOxH2WP6s&#xA;5vtvSGxlHuP63d9lagV4Z+DDs513LsVdirKvI2jvNeHUZVpDBUQk/tSEUP8AwIze9i6Qyn4h5R5e&#xA;91XamoAjwDmfuZ3nUugfK/5n/wDOOn5g6J56m88flZNWSad7sWcUqQ3NvNLUy+n6pWOSJyzfCT0P&#xA;HiRiqR6zov8Azl5+Ydn/AIf1q3ltdKmZfrXqra2MLAGo9Ux8ZJFB34qD8sVfQX5J/lDYfln5WbTl&#xA;mF5q184n1W+UcVeRRRY4wd/TjBPGu5JJ2rQKvQsVQ2qabZappl3pl/EJ7K+hktrqFujxSqUdT81O&#xA;KvkW4/I389/ys8zXOqflxO2o6fNVVkgaEyNDWqx3NrP8LsvigbxHGtMVdc/lZ/zkl+bWrWMfnt20&#xA;zRrRq+rcCCJIwdnaO1gIaSUjoXHtyAxV9X+VvLWl+WPLun6BpSGOw02FYIA27EL1diKVZ2qzHxOK&#xA;ppirsVdirsVdirsVdirsVdirsVdirsVdirsVdirsVdirTojoyOoZGBDKRUEHqCMBAIopBINhiGre&#xA;Qg7tLpsoQHf0JK0H+qwqfvzn9V2HZvEa8j+t3GDtWhUx8Qkx8l+YQ/H6upH83qJT9dfwzXfyPqL+&#xA;n7Q5v8pYe/7Cmul+QX5rJqMw4DcwRVJPsWNKfRmdpuwzd5D8B+txM/aoqoD4lmMEEMESwwoI4kFE&#xA;RRQAZ0UICIoCgHTSkZGzzX5Ji7FXYq7FXYq7FXYq7FXYq7FXYq7FXYq7FXYq7FXYq7FXYq7FXYq7&#xA;FXYq7FXYq7FXYq7FXYq7FXYq7FXYq7FXYq7FXYq7FXYq7FXYq7FXYq7FXYq7FXYq7FXYq7FXYq7F&#xA;XYq7FXYq7FXYq7FXdNziqHOpacH4G6hD/wAvqLX7q5V+Yx3XEPmGzwZ86PyRAIIBBqDuCMta3Yq7&#xA;FXYq7FXYq7FXYq7FXYq7FXYq7FXYq7FXYq7FXYq7FXYq7FXYq7FXYq7FXYq7FXYqlPmPzHaaJZ+t&#xA;KPUnkqIIAaFiPE9gO5zB1+vhpoWd5HkHL0mklmlQ5dS8s1fzHq+qyMbqdvSJ2t0JWMf7H+JzidVr&#xA;8uc+o7d3R6jT6THiHpG/f1SzMNykw0rXtV0uQPZ3DIoNTETWNvmp2zK02ty4TcD8OnycfPpceUVI&#xA;freo+V/NFtrlsdhFeRD9/B/xsvip/DO07O7RjqY90xzH6R5PL63RSwS74nkU7zZOE8k/O3/nIXQ/&#xA;y1MWmQ2v6W8x3EYlSyD+nFDETQPO4DEcqHigFT3oKEqvJI/+cuvzW0ua3vfMnk63j0W4YeiVhvLN&#xA;pFO/7ueZ5Y2PHfZMVfSvkLz1oPnjyxa+YdEkLWlxVXieglhlTZ4pFBNGX8RQjY4qyHFWndERndgq&#xA;KCWYmgAG5JJxV8y+dv8AnL++bzBJon5daGmssjtHFfXCzTC4Za8jDbQFJCm1QxfcdhiqF8r/APOY&#xA;XmCy1+LS/wAxfLsemwuyrNcWsdxBLbh+kj207Su6060YGm4r0xV9RW9xBcQR3FvIssEyrJFKhDKy&#xA;MKqykbEEHbFV+KuxV2KuxV2KuxV2KuxV2KuxV2KuxV2KuxV2KuxV2KvGvNerSanrdxMWrDGxitx2&#xA;EaGgp8+uefdpak5s0j0Gw9wex0OAYsQHXmUozAcx2KuxVH6Hqkul6rb3qE0jYeqo/ajOzr92ZOj1&#xA;Jw5RMdOfu6uPqcAy4zE/gva/UT0/U5DhTly7UpWuejcQq+jxdG6fDXkXXfLnmj/nIDVvOnnK8hj0&#xA;PTZLrV3e5PKP04HWCyjCgMX4GSLioBJ403woez+af+cgf+cfvPukXnlLXL28ttOv+KfXmtWUI4YM&#xA;kkbcZijKw+00fz2xV6L+UH5Z+U/ImgTQ+VtSutT0rVZFvY57maGdCWjCh4WgjiTi6gb71xVneKsI&#xA;/O67vLT8pPNk9mWWcabOoZa8grrwcinSiMd+2KvFf+cINM0g6f5n1Pgraws0FsXIBdLZkZwFPYO4&#xA;NfHiPDFU4/5zV0vRn8haRqkyourwaitvaS0/eNDLDI8sf+rWNW9j88VZp/zjBrk+rfktoRncvNYe&#xA;vYliSfggmYRDf+WIov0Yq9VxV2KuxV2KuxV2KuxV2KuxV2KuxV2KuxV2KuxV2KtSc+DcPt0PH59s&#xA;ErrZI5vBDWu/XvnmD3bsUuxV2KuxV7PST/C1N/U+o/Ty9HPQt/yvn4f+9eM28fy4/wBL4H/I38tr&#xA;Pzp+aFr5d1nkun2wmn1KJGKO6W23pBhuOUhUGm/GtN8znFfTn5xf848flvcfl5qt1oejwaPq2kWk&#xA;t5Z3NqChf6tGZDFLvRxIq05NuDQ18VWF/wDOJ3nXXk/LPzvp8JNw3luL69pEbgyAPcQzv6QUGvH1&#xA;bblxHdj44qxr/oZ3/nIX/qwQf9w26/6qYq9u/JLzb5p/MryPrsfnzTo4PVmk09rZYJLZZLWW3XnV&#xA;ZCxNfUYVxV4tF+UH5+flF5tub/yAh1fTLmsayRCOQSwg1RLq2cqwdf5k+htyMVY/+c+lfnZrXlse&#xA;cfzLZNMs7WdLLR9HoiFpZ6s5SKMvx+CJiWkbkaAdMVfQH/OJFtNF+S9hJItFuLu7kiPiolMdf+CQ&#xA;jFXsuKuxV2KuxV2KuxV2KuxV2KuxV2KuxV2KuxV2KuxV2KvHPNukSaZrdxHxpBMxlt27FHNaD/VO&#xA;2ef9p6U4cxH8J3D2Gg1Ay4geo2KTZr3NdirsVTHQNJk1XVoLNQeDtymb+WNd2P3fjmVodMc+UQHx&#xA;93VxtVnGLGZfi3tXFePCnw0pTtTPRa2p4y3xd+Y+j+afyS/O0+eNLs/rGg39zNc2rbiF0uqm4s5G&#xA;APpspc8K9uLb0IwoTb8z/wDnLeHzT5OufLnlnRrmzvNXj+q3txcMjlYpRxljhWOpcyA8ORpt2r0V&#xA;enf84qflfq/kvybe6jrcDWmreYJIpWs5Bxkit4FYQrIp+y5MrsV7AgHeoxV7diqC1ywm1HRdQ0+C&#xA;5ksp7y2mt4ryFmSWF5YyiyxspVlZCeQINa4q+O/JX51/mN+UfnPVNG/McaprcEqqjxXd1LPJGYmb&#xA;hPaNcMyPHIGNaEctjX4aYqh/zI/MbzT+f/mTSfK/lPR5rfS7WQyKkp5Hm/wG5umQFIkjSoHXqdyS&#xA;Bir7A8meV7Hyr5U0vy7ZHlb6ZbpAJCKF2Aq8hHi7ksfniqc4q7FXYq7FXYq7FXYq7FXYq7FXYq7F&#xA;XYq7FXYq7FXYqlfmDy/Z61Z+hP8ABIm8Mw+0jfxB7jMLXaGGohwy59D3OVpdVLDKxy6h5frHlTWt&#xA;LdvWgaSAdLiIF0I96fZ+nOL1XZmbCdxY7xyen0+uxZRsaPcUnzAcxNNJ8tazqjqLa3b0j1ncFYx/&#xA;sj1+jMzTdn5sx9Mdu/o4ufWY8Q9R37ur1Dy15ZtNDtSiH1bqT+/uCKE/5I8FGdp2f2fDTRobyPMv&#xA;MazWSzy32iOQTjNg4aldWtrd27211ClxbyjjLDKodGHgysCDiqVaZ5I8l6Vdm80vQNNsLwkk3Nra&#xA;QQyVPX40RWxVOsVdirsVQGseXtA1qEQazptrqcC14xXkEc6CuxosisMVXaToei6Pb/VtI0+2063O&#xA;5htIY4EqP8mMKMVRuKuxV2KuxV2KuxV2KuxV2KuxV2KuxV2KuxV2KuxV2KuxV2KuxVYYYS3IxqW6&#xA;1oK5HgHcniPevySHYq7FXYq7FXYq7FXYq7FXYq7FXYq7FXYq7FXYq7FXYq7FXYq7FXYq7FXYq7FX&#xA;Yq7FXYq7FXYq7FXYq7FXYq7FXYq7FXYq7FXYq7FXYq7FXYq7FXYq7FXYq7FXYq7FXYq7FXYq7FXY&#xA;q7FXYq7FUJqmq2Gl2jXd9MIYV2qepPZVA3JyrNnhijxSNBtw4ZZJcMRZecax+bOoSuyaVbpbxdFl&#xA;mHOQ+/H7K/LfOc1Hbsyaxih58/x83f4OxYDeZs+XJIj+YPnAvz/SLV8PTip93CmYP8q6i74vsH6n&#xA;M/kzT/zftP6050n82NXhkVdShju4f2nQenIPfb4T8qDMzB25kB9YEh8i4ubsXGR6Dwn5h6Po2uab&#xA;rNoLqwl9ROjodnRv5WXsc6PT6mGaPFAugz6eeKXDII/L2h2KuxV2KuxV2KuxV2KuxV2KuxV2KuxV&#xA;2KuxV2KuxV2KuxV2KuxV2KuxV2KuxVbJJHFG8kjBY0BZ2PQACpJwEgCykAk0Hhnm3zNc69qbzMxW&#xA;zjJW0h7KniR/M3U5w+u1ks87/hHIPZaLSDDCv4uqSZhOY7FXYqmflzX7vQ9TjvLckp9meGu0kZ6q&#xA;f4e+ZWk1UsExIfHzcfVaaOaHCfg9y/Stj+iv0p6n+hej9Y9T/I48unj7Z2/jx8PxL9NW8b4MuPg/&#xA;iukBr3nbyf5fjkfW9astO9IVdLieON9xUUQnkSewA3y1qeB6P/zlFrPmX86tP8t+X4rf/B95dpax&#xA;zzQuLmRQh5yA8xwDMPhBWtOu+KvpbFXgf58/85IXvk7XE8oeUbOPUPMjCP61NKGlSB5qGKFIUIaS&#xA;VlYN1oKjZq7KvPLr8+v+ck/I81nqXnXRhJpN0wAiu7RbdW6kos0AHpyFegcHp9k4q+oPInnTR/On&#xA;lWw8yaSx+qXyVMT/AG4pFJWSJ6ftI4I9+o2OKp/irsVfMv5lf85O+bLrzjJ5M/K3Tlv7uGVrZr/0&#xA;jcyTTR19QW8Q+DgnE1dqg9dhuVWOTf8AOQ3/ADkF5B1a1H5gaKs9jcmoint1tmkRacxBcQfu+S13&#xA;qGpXcYq+oNF87eXdX8mwecLe5CaFNatevcSbelFGpMokArRoyrBgO4OKvme//wCck/zk89eZrjTv&#xA;yu0j07G3q8Y9BLi5aIHiJJ3lJhjDbUXt05HFU4/LL/nJvzfbec08mfmjYraXU0y2yX3pG2lgnkoE&#xA;FxH9gxvyFHUCla7ruFX07irsVdirsVdirsVdirsVdirsVdirG/zDvXtfKd4UNHm4Q19nYBvvWozX&#xA;drZDHTyrrs7DsvHxZ4303eJ5xT17sVdirsVdirMv01N/yrD6rz3+u/VKV39Onr/Olds3H5g/keH+&#xA;nw/D6nU/lx+c4v6N/HkgvzN/5xf0Hz75wuvM13rd1ZT3SRI1vFHGyAQxrGKFt9+Odc8s+dPy98uQ&#xA;+Wv+cmNN8vwTNcQ6VrUlrHO4AZ1i5qGIG1TTFX3tir4s/IaFPOP/ADkvqOuX6esbeXUNWVXHIK3q&#xA;+lFtvT0zOvHwIGKvpr88fL9rrv5TeaLOeMSNDp895b7AsJrRDPGV8CWjp8jiryD/AJwg1meby95o&#xA;0ZiTDY3VtdRA9AbuN0an/SKMVfTGKoLXE1F9F1BNMIGpNbTCyJPEeuYyI6t2+Om+KvBv+cafyK81&#xA;+QvMOr6x5ot7dZ57VLawkhlExAaTnNWg2rwTFVf/AJzM1rRIPy3tNIuJEbVry+imsbfYyBIVcSy0&#xA;7KA3Cv8AlYqwF7zVdA/5wvijmLQtrd6YbYGoYW0100pHTpIsL/NW98Vek/8AOHeg2tj+VLamiL9a&#xA;1e+nkllH2ikBEMaE+ClGI/1jirz/AP5zd0K3g1Xyv5ghULdXUVzZ3Eg2JFu0ckP3es+KvpX8v9al&#xA;1zyL5e1iZuc+oabaXM7df3ssCtJ/wxOKp/irsVdirsVdirsVdirsVdirsVYv+ZNu83lK6KbmF45C&#xA;PYOAfu5VzWdsQJ058qdj2VKs487eL5xj1zsVdirsVdirKf0ZJ/yrf63Q/wDHR9Svb0/T9L/iebTw&#xA;T+S4v6f2VX3ut8Yfm+H+h+m/uez52TyT4g0z/wBbAf8A8CS4/wCJPir7fxV8Y/8AOK8p0r8+9Z06&#xA;5otxNaahZcTX+8iuY5WArTtAcVfUv5qX0Nh+Wfmu7lI4x6Te0BNKs1u6otaH7TEDFXzh/wA4gprN&#xA;v5R/Mm+0pGN/9Vtl00ogdjdQw3boFVgyseTpsQcVS3/HH/OaX/LNqv8A3B7P/smxV7l/zj3rP5ua&#xA;po2rSfmTHcx30dxGtgLq0is2MRSrcVijiDDl3OKpT+eH/OSukeRJZdA0KJNV81cf3isa21oWHw+t&#xA;xPJ37+mCPcjoVXm3kD/nH3z5+ZGvr51/Na5nhs5ysi2MpKXdxGN1j4Cn1aHf7IAbrQLXlir0X/nL&#xA;XSI0/JMRWUKw2el3tmVhjUKkcKhrdFUCgVR6igYqjf8AnEi6hn/JbT442q9rd3cUw8HMxlA/4GRT&#xA;irz7/nOO8g+r+ULPlWcvfTFR2QCBQT8z0+RxV71+UtjJY/ld5StZQRLHpFl6inqGaBGZdvAmmKss&#xA;xV2KuxV2KuxV2KuxV2KuxV2KqV3aw3drNazjlDOjRyDxVhQ5DJATiYnkWUJmMhIcw8D13RrrRtTm&#xA;sbkGsZrG9KB0P2XHzzhNTp5YZmEnttNnjlgJBAZjt7sVdiqK0zTbvUr+GxtU5zzNxUdgOpY+wG5y&#xA;3DhlkmIx5lrzZY44mUuQe4f4csv8N/oH/j39H0eVN+XX1KePP4vnnbflI+D4XSq/b893jvzUvG8X&#xA;rd/s/Qm2Zbivi7TdC1sf85aPenT7kWX+Ibh/rJhk9LgWejc6cae9cVfaOKvkP88/y+86/l/+ai/m&#xA;l5QtXuLCa4+vTPEjSC3uXBW4SdE+L0p+TEt/lFajaqqR+fv+chPPf5t6NF5L8v8Alt7Y3rJ9eis3&#xA;ku5rjg3IKKRx+nHyAZq16btSuKvpT8hvyyk/Lz8v7fSLwq2r3cjXuqsh5KJ5AqiNW7iNEVfCtSOu&#xA;KvRMVSbzprN1onlDWtXs4WuLywsbi4tYFUuXmjjZo14ipNXAGKvgXyTqvnPyz5wPmu48rS67qoZ5&#xA;o21K2unVbl25G4onDlIN6FuhNetCFXr3/Q1350f9STB/0i33/NeKvYPKt1qv5xfk1qNt5qsF0i61&#xA;b6xaGFI5FERjIMEwSYliVcBuu9MVfOnkrz9+Yv8Azj3rGp6DrugteaZdy8xBI7wRPKg4ie1uQkiM&#xA;rpTl8J6AHiQcVV9O0nz7/wA5EfmZa61qdg1j5WtfTinlTmLeCzjYs0MUjU9SaUk7r3NSAo2Vfa8U&#xA;UcUSRRKEjjUKiKKAKBQAD2xVdirsVdirsVdirsVdirsVdirsVdiqT+ZPK+m6/aiK6XhMlfQuU+2h&#xA;P6we4zD1mihnjUufQuVpdZPDK48uoeW6x+XnmTTnYx25vYB9mW3HMke8f2x91PfOX1HZObGdhxDy&#xA;/Vzelwdp4cg3PCfP9aRnStUDcTZz8q04+m9a/dmF4E/5p+TmeND+cPmnGk+QfM2ouv8AojWsJ6zX&#xA;IMYA/wBU/GfoGZmDsvPk6cI89v2uJm7Sw4+tny3eo+VvKGneX4D6X768kFJrphQkdeKj9lfbOn0W&#xA;ghgG28upec1munnO+0e5PcznCf/Z</xmpGImg:image>
               </rdf:li>
            </rdf:Alt>
         </xmp:Thumbnails>
      </rdf:Description>
      <rdf:Description rdf:about=""
            xmlns:xmpMM="http://ns.adobe.com/xap/1.0/mm/"
            xmlns:stRef="http://ns.adobe.com/xap/1.0/sType/ResourceRef#"
            xmlns:stEvt="http://ns.adobe.com/xap/1.0/sType/ResourceEvent#">
         <xmpMM:InstanceID>xmp.iid:9BD0B0153013E411BEDAD1AAF8E34EA0</xmpMM:InstanceID>
         <xmpMM:DocumentID>xmp.did:9BD0B0153013E411BEDAD1AAF8E34EA0</xmpMM:DocumentID>
         <xmpMM:OriginalDocumentID>uuid:5D20892493BFDB11914A8590D31508C8</xmpMM:OriginalDocumentID>
         <xmpMM:RenditionClass>proof:pdf</xmpMM:RenditionClass>
         <xmpMM:DerivedFrom rdf:parseType="Resource">
            <stRef:instanceID>xmp.iid:CF8F8012FB05E41194BDE5B108BC4427</stRef:instanceID>
            <stRef:documentID>xmp.did:CF8F8012FB05E41194BDE5B108BC4427</stRef:documentID>
            <stRef:originalDocumentID>uuid:5D20892493BFDB11914A8590D31508C8</stRef:originalDocumentID>
            <stRef:renditionClass>proof:pdf</stRef:renditionClass>
         </xmpMM:DerivedFrom>
         <xmpMM:History>
            <rdf:Seq>
               <rdf:li rdf:parseType="Resource">
                  <stEvt:action>saved</stEvt:action>
                  <stEvt:instanceID>xmp.iid:CF8F8012FB05E41194BDE5B108BC4427</stEvt:instanceID>
                  <stEvt:when>2014-07-08T14:35:54-04:00</stEvt:when>
                  <stEvt:softwareAgent>Adobe Illustrator CS6 (Windows)</stEvt:softwareAgent>
                  <stEvt:changed>/</stEvt:changed>
               </rdf:li>
               <rdf:li rdf:parseType="Resource">
                  <stEvt:action>saved</stEvt:action>
                  <stEvt:instanceID>xmp.iid:9BD0B0153013E411BEDAD1AAF8E34EA0</stEvt:instanceID>
                  <stEvt:when>2014-07-24T08:47:08-04:00</stEvt:when>
                  <stEvt:softwareAgent>Adobe Illustrator CS6 (Windows)</stEvt:softwareAgent>
                  <stEvt:changed>/</stEvt:changed>
               </rdf:li>
            </rdf:Seq>
         </xmpMM:History>
      </rdf:Description>
      <rdf:Description rdf:about=""
            xmlns:illustrator="http://ns.adobe.com/illustrator/1.0/">
         <illustrator:StartupProfile>Print</illustrator:StartupProfile>
      </rdf:Description>
      <rdf:Description rdf:about=""
            xmlns:xmpTPg="http://ns.adobe.com/xap/1.0/t/pg/"
            xmlns:stDim="http://ns.adobe.com/xap/1.0/sType/Dimensions#"
            xmlns:xmpG="http://ns.adobe.com/xap/1.0/g/">
         <xmpTPg:HasVisibleOverprint>False</xmpTPg:HasVisibleOverprint>
         <xmpTPg:HasVisibleTransparency>False</xmpTPg:HasVisibleTransparency>
         <xmpTPg:NPages>1</xmpTPg:NPages>
         <xmpTPg:MaxPageSize rdf:parseType="Resource">
            <stDim:w>128.500000</stDim:w>
            <stDim:h>108.172852</stDim:h>
            <stDim:unit>Pixels</stDim:unit>
         </xmpTPg:MaxPageSize>
         <xmpTPg:PlateNames>
            <rdf:Seq>
               <rdf:li>Cyan</rdf:li>
               <rdf:li>Magenta</rdf:li>
               <rdf:li>Yellow</rdf:li>
               <rdf:li>Black</rdf:li>
            </rdf:Seq>
         </xmpTPg:PlateNames>
         <xmpTPg:SwatchGroups>
            <rdf:Seq>
               <rdf:li rdf:parseType="Resource">
                  <xmpG:groupName>Default Swatch Group</xmpG:groupName>
                  <xmpG:groupType>0</xmpG:groupType>
               </rdf:li>
            </rdf:Seq>
         </xmpTPg:SwatchGroups>
      </rdf:Description>
      <rdf:Description rdf:about=""
            xmlns:pdf="http://ns.adobe.com/pdf/1.3/">
         <pdf:Producer>Adobe PDF library 10.01</pdf:Producer>
      </rdf:Description>
   </rdf:RDF>
</x:xmpmeta>
                                                                                                    
                                                                                                    
                                                                                                    
                                                                                                    
                                                                                                    
                                                                                                    
                                                                                                    
                                                                                                    
                                                                                                    
                                                                                                    
                                                                                                    
                                                                                                    
                                                                                                    
                                                                                                    
                                                                                                    
                                                                                                    
                                                                                                    
                                                                                                    
                                                                                                    
                                                                                                    
                           
<?xpacket end="w"?>
	</metadata>
<g>
	<path fill="#FFD27F" d="M87.662,8.357c-2.688,0-4.867,2.18-4.867,4.869s2.18,4.869,4.867,4.869c2.691,0,4.871-2.18,4.871-4.869
		C92.533,10.537,90.354,8.357,87.662,8.357z"/>
	<circle fill="#F9BC60" cx="87.663" cy="29.987" r="5.805"/>
	<path fill="#F3A747" d="M87.661,41.458c-3.545,0-6.422,2.877-6.422,6.426c0,3.551,2.877,6.427,6.422,6.427
		c3.55,0,6.427-2.876,6.427-6.427C94.088,44.334,91.211,41.458,87.661,41.458z"/>
	<path fill="#EC9425" d="M87.66,60.396c-3.865,0-7.001,3.137-7.001,7.005c0,3.871,3.136,7.008,7.001,7.008
		c3.874,0,7.01-3.138,7.01-7.008C94.67,63.533,91.533,60.396,87.66,60.396z"/>
	<path fill="#E08026" d="M87.658,80.495c-4.318,0-7.821,3.506-7.821,7.826c0,4.327,3.503,7.832,7.821,7.832
		c4.328,0,7.834-3.505,7.834-7.832C95.492,84.001,91.986,80.495,87.658,80.495z"/>
	<g>
		<path d="M12.12,9.915c1.345,0.014,2.62-0.448,2.858-1.625h1.303v9.805H14.53v-6.92h-2.41V9.915z"/>
	</g>
	<g>
		<path d="M18.693,35.792h-6.695c0.014-1.611,0.84-2.83,2.157-3.712c1.274-0.925,2.927-1.695,2.956-3.222
			c0.014-0.701-0.28-1.737-1.653-1.737c-1.261,0-1.639,1.079-1.681,2.452H12.18c0-2.171,1.19-3.782,3.375-3.782
			c2.396,0,3.152,1.751,3.152,3.012c0,1.555-1.064,2.521-2.185,3.306c-1.135,0.784-2.325,1.387-2.605,2.255h4.776V35.792z"/>
	</g>
	<g>
		<path d="M14.645,48.567c1.064,0.042,2.171-0.336,2.171-1.541c0-0.826-0.644-1.387-1.527-1.387c-1.106,0-1.653,0.994-1.625,2.004
			h-1.597c0.084-1.906,1.275-3.334,3.25-3.334c1.527,0,3.096,0.882,3.096,2.619c0,0.98-0.448,1.765-1.387,2.102v0.027
			c1.106,0.225,1.779,1.191,1.779,2.451c0,1.85-1.597,2.998-3.474,2.998c-2.269,0-3.404-1.373-3.446-3.418h1.597
			c-0.042,1.19,0.602,2.087,1.849,2.087c1.065,0,1.877-0.63,1.877-1.751c0-1.527-1.303-1.723-2.563-1.666V48.567z"/>
		<path d="M19.922,49.744h4.076v1.513h-4.076V49.744z"/>
		<path d="M26.404,44.505h5.07v1.43h-3.88l-0.504,2.492l0.028,0.029c0.434-0.477,1.148-0.743,1.807-0.743
			c1.947,0,3.068,1.401,3.068,3.278c0,1.568-0.98,3.516-3.39,3.516c-1.891,0-3.362-1.023-3.432-2.984h1.597
			c0.098,1.051,0.771,1.653,1.807,1.653c1.359,0,1.821-0.966,1.821-2.157c0-1.078-0.575-2.045-1.863-2.045
			c-0.672,0-1.331,0.21-1.583,0.896h-1.597L26.404,44.505z"/>
	</g>
	<g>
		<path d="M16.984,67.083c-0.07-0.799-0.603-1.345-1.429-1.345c-1.737,0-1.933,2.073-2.031,3.362l0.028,0.026
			c0.434-0.77,1.247-1.161,2.115-1.161c1.947,0,3.096,1.414,3.096,3.291c0,1.905-1.303,3.349-3.264,3.349
			c-2.886,0-3.572-2.27-3.572-5.127c0-2.339,0.925-5.071,3.698-5.071c1.555,0,2.872,1.079,2.956,2.676H16.984z M17.166,71.229
			c0-1.051-0.574-2.003-1.723-2.003c-1.163,0-1.765,0.926-1.765,2.003c0,1.063,0.603,2.045,1.765,2.045
			C16.592,73.273,17.166,72.28,17.166,71.229z"/>
		<path d="M19.922,69.843h4.076v1.513h-4.076V69.843z"/>
		<path d="M26.937,71.93c0.07,0.799,0.602,1.345,1.429,1.345c1.737,0,1.933-2.072,2.031-3.361l-0.028-0.027
			c-0.42,0.757-1.219,1.177-2.115,1.177c-1.849,0-3.096-1.303-3.096-3.307c0-1.904,1.233-3.348,3.376-3.348
			c2.773,0,3.46,2.27,3.46,5.126c0,2.34-0.925,5.071-3.698,5.071c-1.555,0-2.872-1.079-2.956-2.676H26.937z M26.754,67.741
			c0,1.064,0.546,2.06,1.709,2.06c1.19,0,1.779-0.979,1.779-2.06c0-1.051-0.588-2.003-1.779-2.003
			C27.301,65.738,26.754,66.677,26.754,67.741z"/>
	</g>
	<g>
		<path d="M12.693,87.973c1.345,0.015,2.62-0.448,2.858-1.624h1.303v9.805h-1.751v-6.92h-2.41V87.973z"/>
		<path d="M27.02,91.251c0,2.227-0.575,5.099-3.39,5.099s-3.39-2.872-3.39-5.099c0-2.229,0.574-5.1,3.39-5.1
			S27.02,89.022,27.02,91.251z M25.422,91.251c0-2.045-0.392-3.77-1.793-3.77s-1.793,1.725-1.793,3.77s0.392,3.768,1.793,3.768
			S25.422,93.296,25.422,91.251z"/>
		<path d="M28.206,91.587h4.076V93.1h-4.076V91.587z"/>
		<path d="M40.207,96.153h-6.695c0.014-1.611,0.84-2.83,2.157-3.713c1.274-0.925,2.927-1.693,2.956-3.222
			c0.014-0.701-0.28-1.737-1.653-1.737c-1.261,0-1.639,1.079-1.681,2.452h-1.597c0-2.172,1.19-3.782,3.375-3.782
			c2.396,0,3.152,1.752,3.152,3.012c0,1.555-1.064,2.521-2.185,3.307c-1.135,0.784-2.325,1.387-2.605,2.255h4.776V96.153z"/>
		<path d="M48.033,91.251c0,2.227-0.575,5.099-3.39,5.099s-3.39-2.872-3.39-5.099c0-2.229,0.574-5.1,3.39-5.1
			S48.033,89.022,48.033,91.251z M46.436,91.251c0-2.045-0.392-3.77-1.793-3.77s-1.793,1.725-1.793,3.77s0.392,3.768,1.793,3.768
			S46.436,93.296,46.436,91.251z"/>
	</g>
</g>
</svg>
