<?xml version="1.0" encoding="utf-8"?>
<!-- Generator: Adobe Illustrator 16.0.0, SVG Export Plug-In . SVG Version: 6.00 Build 0)  -->
<!DOCTYPE svg PUBLIC "-//W3C//DTD SVG 1.1//EN" "http://www.w3.org/Graphics/SVG/1.1/DTD/svg11.dtd">
<svg version="1.1" id="Layer_1" xmlns="http://www.w3.org/2000/svg" xmlns:xlink="http://www.w3.org/1999/xlink" x="0px" y="0px"
	 width="111.611px" height="35.055px" viewBox="0 0.122 111.611 35.055" enable-background="new 0 0.122 111.611 35.055"
	 xml:space="preserve">
<metadata><?xpacket begin="﻿" id="W5M0MpCehiHzreSzNTczkc9d"?>
<x:xmpmeta xmlns:x="adobe:ns:meta/" x:xmptk="Adobe XMP Core 5.3-c011 66.145661, 2012/02/06-14:56:27        ">
   <rdf:RDF xmlns:rdf="http://www.w3.org/1999/02/22-rdf-syntax-ns#">
      <rdf:Description rdf:about=""
            xmlns:dc="http://purl.org/dc/elements/1.1/">
         <dc:format>image/svg+xml</dc:format>
         <dc:title>
            <rdf:Alt>
               <rdf:li xml:lang="x-default">Print</rdf:li>
            </rdf:Alt>
         </dc:title>
      </rdf:Description>
      <rdf:Description rdf:about=""
            xmlns:xmp="http://ns.adobe.com/xap/1.0/"
            xmlns:xmpGImg="http://ns.adobe.com/xap/1.0/g/img/">
         <xmp:MetadataDate>2014-07-24T08:47:08-04:00</xmp:MetadataDate>
         <xmp:ModifyDate>2014-07-24T08:47:08-04:00</xmp:ModifyDate>
         <xmp:CreateDate>2014-07-24T08:47:06-04:00</xmp:CreateDate>
         <xmp:CreatorTool>Adobe Illustrator CS6 (Windows)</xmp:CreatorTool>
         <xmp:Thumbnails>
            <rdf:Alt>
               <rdf:li rdf:parseType="Resource">
                  <xmpGImg:width>256</xmpGImg:width>
                  <xmpGImg:height>80</xmpGImg:height>
                  <xmpGImg:format>JPEG</xmpGImg:format>
                  <xmpGImg:image>/9j/4AAQSkZJRgABAgEASABIAAD/7QAsUGhvdG9zaG9wIDMuMAA4QklNA+0AAAAAABAASAAAAAEA&#xA;AQBIAAAAAQAB/+4ADkFkb2JlAGTAAAAAAf/bAIQABgQEBAUEBgUFBgkGBQYJCwgGBggLDAoKCwoK&#xA;DBAMDAwMDAwQDA4PEA8ODBMTFBQTExwbGxscHx8fHx8fHx8fHwEHBwcNDA0YEBAYGhURFRofHx8f&#xA;Hx8fHx8fHx8fHx8fHx8fHx8fHx8fHx8fHx8fHx8fHx8fHx8fHx8fHx8fHx8f/8AAEQgAUAEAAwER&#xA;AAIRAQMRAf/EAaIAAAAHAQEBAQEAAAAAAAAAAAQFAwIGAQAHCAkKCwEAAgIDAQEBAQEAAAAAAAAA&#xA;AQACAwQFBgcICQoLEAACAQMDAgQCBgcDBAIGAnMBAgMRBAAFIRIxQVEGE2EicYEUMpGhBxWxQiPB&#xA;UtHhMxZi8CRygvElQzRTkqKyY3PCNUQnk6OzNhdUZHTD0uIIJoMJChgZhJRFRqS0VtNVKBry4/PE&#xA;1OT0ZXWFlaW1xdXl9WZ2hpamtsbW5vY3R1dnd4eXp7fH1+f3OEhYaHiImKi4yNjo+Ck5SVlpeYmZ&#xA;qbnJ2en5KjpKWmp6ipqqusra6voRAAICAQIDBQUEBQYECAMDbQEAAhEDBCESMUEFURNhIgZxgZEy&#xA;obHwFMHR4SNCFVJicvEzJDRDghaSUyWiY7LCB3PSNeJEgxdUkwgJChgZJjZFGidkdFU38qOzwygp&#xA;0+PzhJSktMTU5PRldYWVpbXF1eX1RlZmdoaWprbG1ub2R1dnd4eXp7fH1+f3OEhYaHiImKi4yNjo&#xA;+DlJWWl5iZmpucnZ6fkqOkpaanqKmqq6ytrq+v/aAAwDAQACEQMRAD8A9U4q7FXYq7FXYq7FVk08&#xA;MEZkmdY0HVmIA/HITyRgLkaDKMDI0BaWv5o0ZW4+sW9wjU/VmCe1sAPP7C5Q0GU9EXZ6pYXm1vMr&#xA;t14dG/4E0OZOHV48v0ytoyYJw+oIrMhqdirsVULy+tLKAz3UqxRDue58AOpPyyrNmhjjxSNBsx4p&#xA;TNRFljN1+YVojEW1o8qjo7sE+mgDZpcvb0AfTEn7P1uzh2RI/VKvtdbfmFbMwFzaPEvd0YP+BC44&#xA;+3ok+qJHuN/qTPsiQ+mVslsdQs76ETWkqyx9yOoPgQdx9ObrDnhljxQNh1eXFLGakKRGWtbsVdir&#xA;H/MXnPTNGJgobm9p/cIaBa9Obb0/Xmq1/a2PT+n6p9363YaTs6ebflHv/Uwy5/MfzFK5MRit17Kq&#xA;cvvL8s57J29qJHao/D9buYdkYQN7K+z/ADJ16Fx9YWK5T9oFeDU9iu34ZLF2/nifVUh8mOTsfEeV&#xA;hnHl/wA06brUZEBMVyorJbP9oDxB/aGdJoe0seoHp2l3Ok1WinhO+8e9OM2DhuxV2KsT84+fLXQ6&#xA;2lsouNSIBKH7EYI2L06n/JzVdodpxwemO8/udnoezTm9R2h97y7VPMuu6o5a8vJHUmvpA8Yx8kWi&#xA;5y+bWZcv1SP6HpMOkxY/piEtVmVgykqw6EbHMcGnIItkOh+fPMOlSKPXa7th9q3nJcU/yWPxL+r2&#xA;zYabtTNiPPiHcXA1HZuLIOXCe8PWvLvmPT9dsfrNo1GWgngb7cbHsfY9j3zq9Jq4Z48UfiO55jVa&#xA;WeGVS+B700zKcZKNW1hoXNvbn94Ptv1p7D3zT6/tAwPBDn1LnabS8Q4pckje4nkbk8jMfEknNHLL&#xA;ORskl2IhEcgirPVru3YVcyR90Y129j2zK0+vyYzzuPcWnLpoyHcWTQTxzwrLGao4qM6bFlE4iQ5F&#xA;1E4GJor8sYqV1cxWttJcSmiRip/gPpyvNlGOJkeQZ44GchEdWAalqVzf3BlmPwj+7jH2VHtnGarV&#xA;TzSuXy7nosGCOONBCZjNy5HdHDoxV1NVYGhB9jhjIg2OakAiizby7rBv7dkmp9ZhpzPTkD0b+udZ&#xA;2brfGjUvqj9rodZpvDlY+kpvmzcJbLLHFE8sh4xxqWdj2CipORlIRBJ5BMYkmg8s1zWbjVb1ppCR&#xA;EpIgi7Kv9T3zh9bq5Z58R5dA9XptOMUaHPql+YbkOxVHaPq9zpd4txCTxNBLH2dfA/wzK0mqlgnx&#xA;D4jvaNRp45Y0XqdvcRXEEc8R5RyqHQ+xFc7nHMTiJDkXlJwMSQeYVMmxSbzbrh0fR5J4yPrMh9K3&#xA;B3+Nv2qf5IFc1/aes/L4jIfUdg5mh03jZAD9I3Lx6SR5JGkkYvI5LOxNSSdySc4CUiTZ5vYAACgt&#xA;wJdiqtaXdxZ3MdzbOY5ojyRx45PFlljkJRNEMMmMTiYy5F7PoWqx6rpcF8g4mRf3ifyupow+/PQ9&#xA;HqRnxCY6/e8ZqcBxZDE9EfmU0JZ5l1hdH0W6vzQvGtIVPeRvhQfed8xtZqPBxGfd97kaTB4uQReC&#xA;3FxNcTyTzuZJpWLyO3UsxqSc4ScjIknmXtoxERQ5BZkUuxV2Kpz5S1+XRNahugx+rsRHdJ2aNjv9&#xA;K9RmZodUcOQS6dfc4mt0wzYzHr0973cEEAg1B6HO6eLYXI7SSM7bsxLH5nfOJnIyJJ6vQRFCluRS&#xA;7FU/8uSMYJUPRWBH0j+zOg7HmTCQ7i6zXR9QKb5uHBSLzhKy6aiDpJKA3yAJ/Xmn7amRiA75Ow7N&#xA;jeQnuDDc5d3bsVdiqb+VpWTWYlHSRXVvkFLf8a5suyZkZwO+/utw9fG8R8mcZ1zoEm83zNF5fuiu&#xA;xfilfZnAP4Zru1Z8Onl8Pvc3s+N5ovM84p6d2KuxV2KvSfJcrSaBCG39NnQfLlX+Odl2PInTjyt5&#xA;rtKNZinmbRwHnv5pTMZ9Pg/ZVJH+liB/xrnKe0czxQj73oOxI7SPuYLnNO9dirsVdir0n8r5XbSr&#xA;uIn4Un5L/skFf+I51/s7InFId0v0PN9tR/eRPkzPOhdMwT83J2XRrOEfZkuOTf7BD/zVmi7el+7i&#xA;P6X6HddiR/eSPk8qzlnpXYq7FXYq7FXvvlmZ5/LumSuau1tFyPiQgFfpzvdHIywwJ/mh4jVxrLID&#xA;+cUl1G0a1unjI+AmsZ8VOczq9OcWQjp0dpgyccQUNmM2uxVk+i2jW9nVxR5TyI8B2GdR2bgOPHvz&#xA;lu6jV5OKe3II/Ng4qV+ZLJ7rS3CCskREqgd+Ox/AnNf2pgOTCa5jdy9FlEMgvkdmCZx70DsVdirI&#xA;PJ9m73j3RH7uFSqnxZv7M3XYuAnIZ9I/e67tHLURHqWX50zpUDrtk19pF1bJu7pVB4spDKPvGYut&#xA;wnLhlEcyP2uRpcvBkEi8oIINDsR1GcI9Y7ArsVdhV6n5bsXsdFtoJBSXjzkHcM55UPyrTO47PwHF&#xA;hjE8/wBbyusy8eUkckyzNcVhP5n6e8llaXyCot3aOSnhJShP0rT6c5z2iwEwjMfwmvm7rsXLUpQ7&#xA;/wBDznOSejdirsVdir1T8u9Oe10ATSCj3chlFevCgVf1V+nO27CwGGCz/Eb+Dyva2USy0P4RTKM3&#xA;TrGI/mhp73XlkzIKtZypM1P5CCjf8Srmp7axGWCx/Cb/AEO07Iy8Oaj/ABCnjuce9W7FXYq7FV0U&#xA;UksqRRqWkkYKijqWJoAMMYkmhzQSALL6F0yzFlp1rZjf6vDHFUd+Chf4Z6Dhx8EBHuADwuWfHMy7&#xA;za+6tILmPhMvIdj3B9jkc+CGUVILjySgbCVv5bXl8E5C+DLU/gRmql2ML2l9jmDX94RNnolrbsHc&#xA;mVx0LbAfRmVp+zMeM2fUWnLq5SFDYJjmxcV2KuxVjeseVTLI09iQrNu0B2Ff8k9vlmh1vZHETLH8&#xA;v1O003aFCp/NIn0TV0bibSSo8ByH3iuag6DOP4C7AarGf4gjbDypqE7g3A+rxd60LH5AfxzL0/ZG&#xA;WZ9fpH2tGXtCER6dyy+0tILS3SCBeMadPEnxPvnS4cMccRGPIOlyZDM2earlrB2KsQ8z+UJJ5Xvt&#xA;OAMj/FNb9Knuye57jOf7S7KMiZ4+fUfqdxou0BEcE/gWGTQTQyGOaNo5B1RwVI+g5zk4GJoii7uM&#xA;hIWDbUUUsriOJGkc9EUFifoGCMTI0BZWUgBZZj5Z8nSpKl7qS8eB5RWx3Nexf+mdF2d2SQRPJ8B+&#xA;t02t7RBHDD5/qZlnROldiqjeWlveWstrcLzhmUq6nwOV5cUckTGW4LPHkMJCQ5h5J5k8q3+izsWU&#xA;y2TH91cgVFK7B/Bs4TX9mz08u+HQ/r83rdHroZh3S7kkzXOa7FWS+VPJ13q0yXFyhi05SCznYyAf&#xA;sp/XNv2b2VPORKW2P7/d+t1uu7QjiFR3n93verRokaLGihUQBVUbAAbADO4iABQ5PKkkmy3hQsnh&#xA;inhkgmUPFKpSRD0KsKEHIyiJAg8imMjE2OYeIebvKd3oF8VIMlhKSba49v5W8GH45xWv0MsEv6J5&#xA;F7HRa2OeP9IcwkOYDmuxV2KvQ/y28nTNPHrd/GUij+KyiYULMeklP5R+z9+dD2R2ebGWY26frdF2&#xA;rrhXhx59f1PTc6V512KuxV2KuxV2KuxV2KuxV2KuxV2KuxV2KrZIopBSRFcDoGAP68jKIPMWkSI5&#xA;NRwwxAiNFQHrxAH6sYwEeQpTInmV+SQ7FXYq7FWnRHQo6hkYUZSKgg+IOAgEUUgkbhJLryV5ZuXL&#xA;vZKjHvEzRj/gVIX8M12TsjTTNmFe6w5sO0c8duL57r7Pyf5btHDxWKM46NIWk3+TlhksXZWngbEB&#xA;8d/vY5O0M09jL9Cc9NhmwcN2KuxV2KqV3aWt5bvb3USzQSCjxuKg5CeOMxUhYZQnKJuJosI1T8pd&#xA;MnkMmn3T2ld/Sceqg9lNVYfSTmlzdhQkbgeH7XcYe2pgVMcX2JYn5QX5YB9RiVe5WNmP3Er+vMUd&#xA;gS6yHyck9uR6RPzZFof5a6DprrNccr+4XcGYARg+IjG3/BE5sdN2Pixmz6j58vk4Go7Wy5BQ9I8u&#xA;fzZbm2dW7FXYq7FXYq7FXYq7FXYq7FXYq7FXYq7FXYq7FXYq7FXYq7FXYq7FXYq7FXYq7FXYq7FX&#xA;Yq7FXYq7FXYq7FXYqlvmLzLoPlvS31XXb6LT9PjZUe5mNFDOeKj5k4qjre4hubeK4gcSQTIskUg6&#xA;MjCqkfMHFVTFXYq7FXYqxpPzL/Lx9Y/QyeZdMbVefpCzF3CZPUrT06cvt1249cVZLirsVdiqSeZf&#xA;PHk/yusTeYdZtNL9evorczJG706lUJ5MB3IGKo3Rdd0TXLBNQ0a/t9SsXJC3NrKk0ZI6ryQkVFdx&#xA;1GKo7FWP6p+YXkHSL+XT9V8y6Vp9/Bx9azur62hmTmodeUcjqy8lYMKjocVR+ieZPLuvW8lzoeqW&#xA;eq28T+nLNYzxXKK9AeLNEzgGhBpiqY4q7FWGee/zi/LryLPFbeZNWW1vZ15x2ccck83AmnJkiV+C&#xA;+Bale2Kpx5Q86+VvOGkjVvLeoR6jYljG0iBlZHABKSRuFdGoa0YDFU7xV575s/P/APKbyrq76PrG&#xA;uquowtxuYIIprn0j3EjQo6qw7rXkPDFWY+X/ADFofmLSYNX0O9i1DTbkEw3MJqpoaEHurA7FTuO+&#xA;KpjirsVS3R/Mvl/WnvE0jUbe/fT5jb3ot5Fk9KZago/EmjbYql3mz8xfI3lFoU8ya1a6ZLcCsMMz&#xA;/vWWtOQjUM/Gv7VKYqmui65o+uaZDqmj3sOoafcAmG6t3EkbUNCKjuCKEdjiqOxViXmD82/y18u6&#xA;odK1rzFZWWorT1LZ5KunIch6gUNwqN/ipirITrOkDSf0wb6AaSIfrJ1D1E+r+jTl6nq14cOO/KtM&#xA;VSHy1+av5deZ9SfTNB8wWl/qCAn6tG9HYKKsUDBeYA6la4qyrFXyR/zlR+WvmrT9KuPNuqecrrV9&#xA;On1UrYaBLC0cNolyZJEVG9d1PpogSvpgn2xV9ReU/wDlFdG/5gbb/kyuKprirsVdirEfzZ0rzXrH&#xA;5ea1pXlRlj1y/iW3t5HcRAJJIqz/AB/sn0eYBHfFXgf5p/lR+WfkP8graPVLK3t/O5ht/Ru0ctdS&#xA;6gzI1yqtUc4kHMdOIX/Kpir6C/K1tcb8uPLTa7zOrHTbb62ZamQt6YoZOW/PjTnXetcVZRirsVeD&#xA;+Z/y28taR538zfmh+bNzaal5dZYrbR7N457lbZGYRxh4VQjl0ApVeTMx8cVSf/nFGK0uPNPn3V/L&#xA;aNZ+Sbi5jj0zT5JFZ1YM7KTHydkpGf2utaVPE0VfSGKvimDWfKGufmX+Yet695K1PzuPr/GxTT0m&#xA;eO2tbdpYjLO8LDjyjjj41FNjvir6L/IXU/ys1HyncXP5eWJ0uze4P6S0+Uv60VzwUfvA7y9UAoVa&#xA;h+dcVel4q7FXxn5F87yTfmb541yTyXcee/NN3eSLZ2iANDZ2cUjoxMjxz8fhEcafB0Wld6FV6v8A&#xA;8476l+WUt15s1bQYLzy3qbzqfMXl/UJI0gtWEkhQxLwj4orM6b049CBtir2KPzDot4xttO1OznvZ&#xA;Fb0IknjclgpP2UYsQKVNO2KvmT/nGe9/LKz8vebI/PzabF5nXUJv0n+mfS9Zrb01DKPXry/fCXmF&#xA;3qRXtiqdf84da1aTXfnzSdNZhocN9DeaRC4aqxTtOlTXofThiGKvpTFWGfmZ5E1/zhYWtnpXmq98&#xA;rpEZPrT2KktOrhQFZg8TALQ9D3xV5H/zhbD6Gg+bIOXL0tSjTke/GMiuKt/lj5a0Xz7+d/5n635q&#xA;sIdWGi3i6Vp1teRrPAkaSTQVEcnJeQS1Wm37RPXFUV+Q62/k780PzL8nJMLby3p88N9ZpNIBHbiU&#xA;7AMx/aSRFqTX4R3xV7nDr2kX3ODTdStLm8KMYo0mSQ1A2JVCWoD1xV4Ton5T+Sfy7/LrzBq35vJp&#xA;esaxqM881xqNPXmf1UHCG1eaOOVZmfk3wLWprWg2VeUcfNMX/OO3lPy3fPLb2XmjzIRa9Qx0+i8F&#xA;Ck/Za4ZpB40BxV6R/wA5H+RfLPkDy35W83+T9Mg0jU9A1S3hSW1RYmliMbuPWYCsrc4VHJ6khmr1&#xA;xV9LYq8K/wCcyf8AyUcP/bVtv+TU2KvYPKf/ACiujf8AMDbf8mVxVNcVdirsVYf+bfn5PIfkHVPM&#xA;gjWe6tlWOxt3rxe4mYRxhqUPFS3JqH7IOKvlz8v/AMxfynm1lPO35p6rf+Y/OJbnb2z2zPY2YVqx&#xA;iOMcUYr1AoEU9BX4sVfX/ljzHpnmXQLHXtLZ20/UIxNbNIvByhJG6np0xVNMVdirwGT87rvyf+Zv&#xA;mjyz+a8hTy7O/wBY8sXf1PnCLYuzKjeijPLVHRS1DRkNaVxVjX5T6Lpvn380vzB1by7YT6T+XGua&#xA;VNpEskUa26yzXCRRO8CFWjV/hlk+yeNfiHxUxV6B5J/5xY/L7yf5psPMumahq019pzs8EdzNbNES&#xA;6NGeYS3jY7OejDFWO+Tv+cjNK8sXmvaB+ZunW3ljXrC5YxJpdjOsFzHxAUhQZ2LsQWVyQrKRiqL/&#xA;AOcV9J1GaTzv51ksn07SPNupi50e0kXiRAkk8nJQNuH+khARt8JxV71irsVfLHlXzVZfkT+ZPnWw&#xA;826bdpo3mC6F3o+r28PqK8atLIkZYleXwz8TQ/CwNdjUKpn+Tfk6T8wfNH5g+cdb0mfT/Kfm1Pql&#xA;nZzcoJLiJpFkMgKkHYRLyZTTkxoTQ4q9N8o/849/lb5S8w2nmHQ9Nlt9UsvU+ryvczyAerE0L1R3&#xA;KmqSEbjFXiGted/Idr5r1yP85/IEH+LLaYnTLnS7aaOHUI1+FC/OciRn2o5qOOx3FCq9J/5xd8ka&#xA;1o+ia95p1uyOm6h5tvBdppxX0/StozI0X7vbhyad6LT7NMVe24q7FXz9/wA4h6bqNjpfm8XtrNam&#xA;TVFaMTRtGWXgd15AVGKpXFrtx+Sn5xecr3W9Jvrvyt5zkXULPUbGH1qXAeSVozUqoIa4kBHKv2TS&#xA;hxVGfk7+X9z56k8++bPOWlzWek+dpkjstOlZ4ZjawymUMSpVgPhjVTtXiexxVn/lv8k/yx/L28n8&#xA;06Hps8V9ZWs5LfWJ5iY+BZ1VHZgSQu22Kvm7T/OyeYvONx5q/NTy1r2vvFITouhW9uf0daxk8gCj&#xA;lC9NhSlGpV+VdlXpn5oXOpfmr+VNr5m8qaBfWOoeUdXWSHSLuEJPLDDCjOYYUJ5AeohAG/wsBiqT&#xA;/mB53u/z3fyz5J8uaFqFpCL2K/8AMV1dxenHbLGjRsA4JDKqySbniWIUAVxV/9k=</xmpGImg:image>
               </rdf:li>
            </rdf:Alt>
         </xmp:Thumbnails>
      </rdf:Description>
      <rdf:Description rdf:about=""
            xmlns:xmpMM="http://ns.adobe.com/xap/1.0/mm/"
            xmlns:stRef="http://ns.adobe.com/xap/1.0/sType/ResourceRef#"
            xmlns:stEvt="http://ns.adobe.com/xap/1.0/sType/ResourceEvent#">
         <xmpMM:InstanceID>xmp.iid:9BD0B0153013E411BEDAD1AAF8E34EA0</xmpMM:InstanceID>
         <xmpMM:DocumentID>xmp.did:9BD0B0153013E411BEDAD1AAF8E34EA0</xmpMM:DocumentID>
         <xmpMM:OriginalDocumentID>uuid:5D20892493BFDB11914A8590D31508C8</xmpMM:OriginalDocumentID>
         <xmpMM:RenditionClass>proof:pdf</xmpMM:RenditionClass>
         <xmpMM:DerivedFrom rdf:parseType="Resource">
            <stRef:instanceID>xmp.iid:CF8F8012FB05E41194BDE5B108BC4427</stRef:instanceID>
            <stRef:documentID>xmp.did:CF8F8012FB05E41194BDE5B108BC4427</stRef:documentID>
            <stRef:originalDocumentID>uuid:5D20892493BFDB11914A8590D31508C8</stRef:originalDocumentID>
            <stRef:renditionClass>proof:pdf</stRef:renditionClass>
         </xmpMM:DerivedFrom>
         <xmpMM:History>
            <rdf:Seq>
               <rdf:li rdf:parseType="Resource">
                  <stEvt:action>saved</stEvt:action>
                  <stEvt:instanceID>xmp.iid:CF8F8012FB05E41194BDE5B108BC4427</stEvt:instanceID>
                  <stEvt:when>2014-07-08T14:35:54-04:00</stEvt:when>
                  <stEvt:softwareAgent>Adobe Illustrator CS6 (Windows)</stEvt:softwareAgent>
                  <stEvt:changed>/</stEvt:changed>
               </rdf:li>
               <rdf:li rdf:parseType="Resource">
                  <stEvt:action>saved</stEvt:action>
                  <stEvt:instanceID>xmp.iid:9BD0B0153013E411BEDAD1AAF8E34EA0</stEvt:instanceID>
                  <stEvt:when>2014-07-24T08:47:08-04:00</stEvt:when>
                  <stEvt:softwareAgent>Adobe Illustrator CS6 (Windows)</stEvt:softwareAgent>
                  <stEvt:changed>/</stEvt:changed>
               </rdf:li>
            </rdf:Seq>
         </xmpMM:History>
      </rdf:Description>
      <rdf:Description rdf:about=""
            xmlns:illustrator="http://ns.adobe.com/illustrator/1.0/">
         <illustrator:StartupProfile>Print</illustrator:StartupProfile>
      </rdf:Description>
      <rdf:Description rdf:about=""
            xmlns:xmpTPg="http://ns.adobe.com/xap/1.0/t/pg/"
            xmlns:stDim="http://ns.adobe.com/xap/1.0/sType/Dimensions#"
            xmlns:xmpG="http://ns.adobe.com/xap/1.0/g/">
         <xmpTPg:HasVisibleOverprint>False</xmpTPg:HasVisibleOverprint>
         <xmpTPg:HasVisibleTransparency>False</xmpTPg:HasVisibleTransparency>
         <xmpTPg:NPages>1</xmpTPg:NPages>
         <xmpTPg:MaxPageSize rdf:parseType="Resource">
            <stDim:w>111.611328</stDim:w>
            <stDim:h>35.055176</stDim:h>
            <stDim:unit>Points</stDim:unit>
         </xmpTPg:MaxPageSize>
         <xmpTPg:PlateNames>
            <rdf:Seq>
               <rdf:li>Cyan</rdf:li>
               <rdf:li>Magenta</rdf:li>
               <rdf:li>Yellow</rdf:li>
               <rdf:li>Black</rdf:li>
            </rdf:Seq>
         </xmpTPg:PlateNames>
         <xmpTPg:SwatchGroups>
            <rdf:Seq>
               <rdf:li rdf:parseType="Resource">
                  <xmpG:groupName>Default Swatch Group</xmpG:groupName>
                  <xmpG:groupType>0</xmpG:groupType>
               </rdf:li>
            </rdf:Seq>
         </xmpTPg:SwatchGroups>
      </rdf:Description>
      <rdf:Description rdf:about=""
            xmlns:pdf="http://ns.adobe.com/pdf/1.3/">
         <pdf:Producer>Adobe PDF library 10.01</pdf:Producer>
      </rdf:Description>
   </rdf:RDF>
</x:xmpmeta>
                                                                                                    
                                                                                                    
                                                                                                    
                                                                                                    
                                                                                                    
                                                                                                    
                                                                                                    
                                                                                                    
                                                                                                    
                                                                                                    
                                                                                                    
                                                                                                    
                                                                                                    
                                                                                                    
                                                                                                    
                                                                                                    
                                                                                                    
                                                                                                    
                                                                                                    
                                                                                                    
                           
<?xpacket end="w"?>
	</metadata>
<g>
	<g>
		<path fill="#FFD27F" d="M0,9.808c0,3.325,2.697,6.021,6.023,6.021s6.023-2.697,6.023-6.021c0-3.33-2.697-6.026-6.023-6.026
			C2.697,3.783,0,6.479,0,9.808z"/>
		<circle fill="#F9BC60" cx="26.758" cy="9.807" r="7.181"/>
		<path fill="#F3A747" d="M40.948,9.81c0,4.385,3.559,7.944,7.949,7.944c4.393,0,7.952-3.559,7.952-7.944
			c0-4.392-3.559-7.951-7.952-7.951C44.507,1.859,40.948,5.418,40.948,9.81z"/>
		<path fill="#EC9425" d="M64.376,9.811c0,4.781,3.881,8.661,8.665,8.661c4.789,0,8.669-3.879,8.669-8.661
			c0-4.792-3.881-8.671-8.669-8.671C68.257,1.139,64.376,5.02,64.376,9.811z"/>
		<path fill="#E08026" d="M89.238,9.813c0,5.342,4.338,9.674,9.683,9.674c5.354,0,9.688-4.333,9.688-9.674
			c0-5.354-4.336-9.691-9.688-9.691C93.576,0.122,89.238,4.459,89.238,9.813z"/>
	</g>
	<g>
		<path d="M3.943,28.718c1.029,0.012,2.005-0.342,2.187-1.242h0.997v7.502H5.786v-5.295H3.943V28.718z"/>
	</g>
	<g>
		<path d="M28.455,35.076h-5.051c0.01-1.215,0.634-2.135,1.627-2.799c0.962-0.699,2.208-1.279,2.23-2.432
			c0.01-0.529-0.211-1.311-1.247-1.311c-0.951,0-1.237,0.813-1.268,1.85H23.54c0-1.639,0.898-2.854,2.546-2.854
			c1.808,0,2.378,1.319,2.378,2.271c0,1.173-0.803,1.9-1.649,2.494c-0.856,0.592-1.753,1.047-1.965,1.699h3.604L28.455,35.076
			L28.455,35.076z"/>
	</g>
	<g>
		<path d="M40.927,30.691c0.804,0.031,1.64-0.254,1.64-1.164c0-0.623-0.487-1.047-1.153-1.047c-0.834,0-1.248,0.752-1.227,1.514
			h-1.206c0.063-1.438,0.963-2.518,2.454-2.518c1.153,0,2.338,0.666,2.338,1.979c0,0.74-0.338,1.332-1.048,1.586v0.021
			c0.835,0.169,1.343,0.898,1.343,1.852c0,1.396-1.206,2.264-2.623,2.264c-1.712,0-2.57-1.037-2.602-2.58h1.206
			c-0.032,0.898,0.454,1.574,1.396,1.574c0.805,0,1.417-0.476,1.417-1.32c0-1.152-0.984-1.301-1.935-1.258V30.691z"/>
		<path d="M44.911,31.58h3.078v1.142h-3.078V31.58z"/>
		<path d="M49.805,27.623h3.828v1.08h-2.93l-0.38,1.881l0.021,0.023c0.327-0.361,0.866-0.563,1.364-0.563
			c1.47,0,2.316,1.059,2.316,2.476c0,1.185-0.739,2.653-2.559,2.653c-1.428,0-2.538-0.771-2.591-2.252h1.206
			c0.074,0.795,0.583,1.248,1.364,1.248c1.026,0,1.375-0.729,1.375-1.629c0-0.813-0.435-1.543-1.406-1.543
			c-0.507,0-1.005,0.158-1.195,0.676h-1.206L49.805,27.623z"/>
	</g>
	<g>
		<path d="M66.909,29.175c-0.056-0.615-0.466-1.036-1.104-1.036c-1.338,0-1.49,1.599-1.564,2.593l0.021,0.02
			c0.336-0.592,0.963-0.895,1.633-0.895c1.502,0,2.389,1.09,2.389,2.538c0,1.47-1.006,2.583-2.52,2.583
			c-2.227,0-2.756-1.751-2.756-3.953c0-1.805,0.714-3.912,2.854-3.912c1.199,0,2.216,0.832,2.279,2.063H66.909z M67.05,32.375
			c0-0.811-0.442-1.545-1.327-1.545c-0.897,0-1.362,0.713-1.362,1.545c0,0.818,0.466,1.576,1.362,1.576
			C66.605,33.951,67.05,33.184,67.05,32.375z"/>
		<path d="M69.175,31.304h3.146v1.167h-3.146V31.304z"/>
		<path d="M74.586,32.914c0.055,0.617,0.464,1.039,1.104,1.039c1.34,0,1.49-1.599,1.564-2.592l-0.021-0.021
			c-0.323,0.584-0.939,0.908-1.633,0.908c-1.427,0-2.388-1.006-2.388-2.551c0-1.469,0.95-2.582,2.604-2.582
			c2.139,0,2.668,1.75,2.668,3.953c0,1.805-0.713,3.911-2.854,3.911c-1.197,0-2.215-0.833-2.279-2.063h1.232v-0.002H74.586z
			 M74.443,29.683c0,0.82,0.422,1.59,1.318,1.59c0.916,0,1.371-0.757,1.371-1.59c0-0.811-0.453-1.545-1.371-1.545
			C74.866,28.138,74.443,28.863,74.443,29.683z"/>
	</g>
	<g>
		<path d="M85.578,28.71c0.99,0.011,1.929-0.332,2.104-1.197h0.959v7.223h-1.289v-5.098h-1.773V28.71z"/>
		<path d="M96.132,31.125c0,1.642-0.423,3.758-2.495,3.758c-2.074,0-2.498-2.116-2.498-3.758c0-1.643,0.424-3.758,2.498-3.758
			C95.709,27.367,96.132,29.482,96.132,31.125z M94.955,31.125c0-1.508-0.289-2.776-1.318-2.776c-1.033,0-1.322,1.271-1.322,2.776
			s0.289,2.775,1.322,2.775C94.666,33.9,94.955,32.63,94.955,31.125z"/>
		<path d="M97.006,31.371h3.003v1.115h-3.003V31.371z"/>
		<path d="M105.848,34.736h-4.933c0.009-1.188,0.618-2.086,1.589-2.736c0.938-0.68,2.156-1.248,2.18-2.373
			c0.008-0.516-0.207-1.278-1.22-1.278c-0.93,0-1.207,0.795-1.237,1.808h-1.178c0-1.601,0.878-2.785,2.485-2.785
			c1.766,0,2.321,1.291,2.321,2.219c0,1.145-0.782,1.856-1.607,2.438c-0.838,0.577-1.714,1.021-1.919,1.66h3.519V34.736z"/>
		<path d="M111.611,31.125c0,1.642-0.424,3.758-2.498,3.758c-2.072,0-2.496-2.116-2.496-3.758c0-1.643,0.423-3.758,2.496-3.758
			C111.188,27.367,111.611,29.482,111.611,31.125z M110.438,31.125c0-1.508-0.289-2.776-1.321-2.776
			c-1.031,0-1.321,1.271-1.321,2.776s0.29,2.775,1.321,2.775C110.146,33.9,110.438,32.63,110.438,31.125z"/>
	</g>
</g>
</svg>
