<?xml version="1.0" encoding="utf-8"?>
<!-- Generator: Adobe Illustrator 16.0.0, SVG Export Plug-In . SVG Version: 6.00 Build 0)  -->
<!DOCTYPE svg PUBLIC "-//W3C//DTD SVG 1.1//EN" "http://www.w3.org/Graphics/SVG/1.1/DTD/svg11.dtd">
<svg version="1.1" id="Layer_1" xmlns="http://www.w3.org/2000/svg" xmlns:xlink="http://www.w3.org/1999/xlink" x="0px" y="0px"
	 width="130.279px" height="96.885px" viewBox="0 0 130.279 96.885" enable-background="new 0 0 130.279 96.885"
	 xml:space="preserve">
<circle fill="#4EAF49" cx="6.641" cy="6.641" r="6.641"/>
<circle fill="#387EB9" cx="6.641" cy="27.95" r="6.641"/>
<circle fill="#B77753" cx="6.641" cy="48.389" r="6.641"/>
<circle fill="#984F9F" cx="6.641" cy="69.308" r="6.641"/>
<circle fill="#F57E20" cx="6.641" cy="90.244" r="6.641"/>
<g>
	<path d="M23.668,4.833c-0.143-1.326-1.027-1.898-2.301-1.898c-1.04,0-2.08,0.377-2.08,1.586c0,1.144,1.482,1.313,2.977,1.651
		c1.482,0.338,2.964,0.858,2.964,2.678c0,1.976-1.937,2.769-3.627,2.769c-2.08,0-3.835-1.014-3.835-3.276h1.17
		c0,1.56,1.3,2.236,2.704,2.236c1.118,0,2.354-0.351,2.354-1.69c0-1.274-1.482-1.495-2.964-1.82s-2.977-0.754-2.977-2.457
		c0-1.885,1.677-2.717,3.367-2.717c1.898,0,3.341,0.897,3.419,2.938H23.668z"/>
	<path d="M31.104,6.835C30.935,5.99,30.35,5.496,29.44,5.496c-1.599,0-2.093,1.261-2.093,2.626c0,1.235,0.559,2.458,1.963,2.458
		c1.066,0,1.703-0.624,1.846-1.638h1.131c-0.247,1.638-1.274,2.613-2.964,2.613c-2.054,0-3.146-1.43-3.146-3.433
		c0-2.015,1.04-3.601,3.172-3.601c1.521,0,2.743,0.715,2.899,2.314H31.104z"/>
	<path d="M33.522,2.116h1.105v3.549h0.026c0.364-0.806,1.313-1.144,2.119-1.144c1.768,0,2.314,1.014,2.314,2.458v4.42h-1.105v-4.55
		c0-0.819-0.52-1.352-1.365-1.352c-1.339,0-1.989,0.897-1.989,2.106v3.796h-1.105V2.116z"/>
	<path d="M43.649,4.521c2.132,0,3.263,1.547,3.263,3.523c0,1.963-1.131,3.51-3.263,3.51c-2.132,0-3.263-1.547-3.263-3.51
		C40.386,6.068,41.517,4.521,43.649,4.521z M43.649,10.58c1.157,0,2.093-0.91,2.093-2.535c0-1.638-0.936-2.548-2.093-2.548
		c-1.157,0-2.093,0.91-2.093,2.548C41.556,9.669,42.492,10.58,43.649,10.58z"/>
	<path d="M51.111,4.521c2.132,0,3.263,1.547,3.263,3.523c0,1.963-1.131,3.51-3.263,3.51c-2.132,0-3.263-1.547-3.263-3.51
		C47.848,6.068,48.979,4.521,51.111,4.521z M51.111,10.58c1.157,0,2.093-0.91,2.093-2.535c0-1.638-0.936-2.548-2.093-2.548
		c-1.157,0-2.093,0.91-2.093,2.548C49.018,9.669,49.954,10.58,51.111,10.58z"/>
	<path d="M55.739,2.116h1.105v9.282h-1.105V2.116z"/>
	<path d="M59.235,9.279c0.039,0.988,0.897,1.3,1.808,1.3c0.688,0,1.625-0.156,1.625-1.001c0-0.858-1.092-1.001-2.197-1.248
		c-1.092-0.247-2.197-0.611-2.197-1.898c0-1.352,1.339-1.911,2.509-1.911c1.482,0,2.665,0.468,2.757,2.106h-1.105
		c-0.078-0.858-0.832-1.131-1.56-1.131c-0.663,0-1.431,0.182-1.431,0.858c0,0.793,1.17,0.923,2.197,1.17
		c1.105,0.247,2.197,0.611,2.197,1.911c0,1.599-1.495,2.119-2.86,2.119c-1.508,0-2.782-0.611-2.847-2.275H59.235z"/>
	<path d="M23.668,25.433c-0.143-1.326-1.027-1.897-2.301-1.897c-1.04,0-2.08,0.377-2.08,1.586c0,1.144,1.482,1.313,2.977,1.65
		c1.482,0.338,2.964,0.858,2.964,2.679c0,1.976-1.937,2.769-3.627,2.769c-2.08,0-3.835-1.014-3.835-3.275h1.17
		c0,1.56,1.3,2.235,2.704,2.235c1.118,0,2.354-0.351,2.354-1.689c0-1.274-1.482-1.495-2.964-1.82s-2.977-0.754-2.977-2.457
		c0-1.885,1.677-2.717,3.367-2.717c1.898,0,3.341,0.896,3.419,2.938H23.668z"/>
	<path d="M32.274,29.866c-0.299,1.481-1.365,2.288-2.874,2.288c-2.145,0-3.159-1.482-3.224-3.536c0-2.016,1.326-3.497,3.159-3.497
		c2.379,0,3.107,2.223,3.042,3.848h-5.031c-0.039,1.17,0.624,2.21,2.093,2.21c0.91,0,1.547-0.441,1.742-1.313H32.274z
		 M31.208,27.994c-0.052-1.054-0.845-1.898-1.937-1.898c-1.157,0-1.846,0.871-1.924,1.898H31.208z"/>
	<path d="M33.522,25.276h1.04v1.066h0.026c0.468-0.832,1.222-1.222,2.184-1.222c1.768,0,2.314,1.014,2.314,2.457v4.42h-1.105v-4.55
		c0-0.819-0.52-1.353-1.365-1.353c-1.339,0-1.989,0.897-1.989,2.106v3.796h-1.105V25.276z"/>
	<path d="M41.92,24.067h-1.105v-1.352h1.105V24.067z M40.815,25.276h1.105v6.722h-1.105V25.276z"/>
	<path d="M46.535,25.121c2.132,0,3.263,1.547,3.263,3.522c0,1.964-1.131,3.511-3.263,3.511c-2.132,0-3.263-1.547-3.263-3.511
		C43.272,26.668,44.403,25.121,46.535,25.121z M46.535,31.179c1.157,0,2.093-0.91,2.093-2.535c0-1.638-0.936-2.548-2.093-2.548
		c-1.157,0-2.093,0.91-2.093,2.548C44.442,30.269,45.378,31.179,46.535,31.179z"/>
	<path d="M51.059,25.276h1.04v1.417h0.026c0.533-1.078,1.274-1.611,2.47-1.572v1.17c-1.781,0-2.431,1.014-2.431,2.717v2.99h-1.105
		V25.276z"/>
	<path d="M65.749,25.511c-0.26-1.313-1.313-1.976-2.6-1.976c-2.21,0-3.146,1.819-3.146,3.757c0,2.119,0.937,3.887,3.159,3.887
		c1.625,0,2.562-1.144,2.678-2.678h1.235c-0.233,2.314-1.677,3.718-4.017,3.718c-2.887,0-4.291-2.132-4.291-4.836
		c0-2.691,1.534-4.888,4.395-4.888c1.938,0,3.536,1.04,3.822,3.016H65.749z"/>
	<path d="M74.16,29.866c-0.299,1.481-1.365,2.288-2.873,2.288c-2.146,0-3.159-1.482-3.225-3.536c0-2.016,1.326-3.497,3.159-3.497
		c2.379,0,3.107,2.223,3.042,3.848h-5.031c-0.039,1.17,0.624,2.21,2.094,2.21c0.91,0,1.547-0.441,1.742-1.313H74.16z M73.093,27.994
		c-0.052-1.054-0.845-1.898-1.937-1.898c-1.157,0-1.847,0.871-1.925,1.898H73.093z"/>
	<path d="M75.407,25.276h1.04v1.066h0.026c0.468-0.832,1.222-1.222,2.184-1.222c1.769,0,2.314,1.014,2.314,2.457v4.42h-1.105v-4.55
		c0-0.819-0.52-1.353-1.365-1.353c-1.339,0-1.988,0.897-1.988,2.106v3.796h-1.105V25.276z"/>
	<path d="M84.169,25.276h1.339v0.976h-1.339v4.173c0,0.507,0.143,0.599,0.832,0.599h0.507v0.975h-0.845
		c-1.145,0-1.6-0.234-1.6-1.469v-4.277H81.92v-0.976h1.144v-2.015h1.105V25.276z"/>
	<path d="M92.463,29.866c-0.299,1.481-1.365,2.288-2.873,2.288c-2.146,0-3.159-1.482-3.225-3.536c0-2.016,1.326-3.497,3.159-3.497
		c2.379,0,3.108,2.223,3.042,3.848h-5.031c-0.039,1.17,0.624,2.21,2.094,2.21c0.91,0,1.547-0.441,1.742-1.313H92.463z
		 M91.397,27.994c-0.052-1.054-0.845-1.898-1.937-1.898c-1.157,0-1.847,0.871-1.925,1.898H91.397z"/>
	<path d="M93.672,25.276h1.039v1.417h0.027c0.533-1.078,1.273-1.611,2.469-1.572v1.17c-1.781,0-2.43,1.014-2.43,2.717v2.99h-1.105
		V25.276z"/>
	<path d="M98.715,29.879c0.039,0.988,0.898,1.3,1.809,1.3c0.688,0,1.625-0.155,1.625-1.001c0-0.857-1.092-1.001-2.197-1.248
		c-1.092-0.247-2.197-0.61-2.197-1.897c0-1.353,1.338-1.911,2.508-1.911c1.482,0,2.666,0.468,2.758,2.105h-1.105
		c-0.078-0.857-0.832-1.131-1.561-1.131c-0.662,0-1.43,0.182-1.43,0.858c0,0.793,1.17,0.923,2.197,1.17
		c1.105,0.247,2.197,0.611,2.197,1.911c0,1.599-1.496,2.119-2.861,2.119c-1.508,0-2.781-0.611-2.846-2.275H98.715z"/>
	<path d="M20.405,44.356h-3.094v-1.04h7.423v1.04H21.64v8.242h-1.235V44.356z"/>
	<path d="M25.761,43.316h1.235v8.242h4.914v1.04h-6.149V43.316z"/>
	<path d="M39.515,46.111c-0.26-1.313-1.313-1.976-2.6-1.976c-2.21,0-3.146,1.819-3.146,3.757c0,2.119,0.936,3.887,3.159,3.887
		c1.625,0,2.561-1.144,2.678-2.678h1.235c-0.234,2.314-1.677,3.718-4.017,3.718c-2.886,0-4.29-2.132-4.29-4.836
		c0-2.691,1.534-4.888,4.394-4.888c1.937,0,3.536,1.04,3.822,3.016H39.515z"/>
	<path d="M20.405,64.956h-3.094v-1.04h7.423v1.04H21.64v8.242h-1.235V64.956z"/>
	<path d="M27.035,66.321c2.132,0,3.263,1.547,3.263,3.522c0,1.964-1.131,3.511-3.263,3.511c-2.132,0-3.263-1.547-3.263-3.511
		C23.772,67.868,24.903,66.321,27.035,66.321z M27.035,72.379c1.157,0,2.093-0.91,2.093-2.535c0-1.638-0.936-2.548-2.093-2.548
		c-1.157,0-2.093,0.91-2.093,2.548C24.942,71.469,25.878,72.379,27.035,72.379z"/>
	<path d="M38.254,73.198h-1.17l-1.365-5.343h-0.026l-1.352,5.343h-1.196l-2.158-6.722h1.222l1.521,5.5h0.026l1.352-5.5h1.209
		l1.404,5.5h0.026l1.508-5.5h1.144L38.254,73.198z"/>
	<path d="M41.452,66.477h1.04v1.066h0.026c0.468-0.832,1.222-1.222,2.184-1.222c1.768,0,2.314,1.014,2.314,2.457v4.42h-1.105v-4.55
		c0-0.819-0.52-1.353-1.365-1.353c-1.339,0-1.989,0.897-1.989,2.106v3.796h-1.105V66.477z"/>
	<path d="M52.476,63.916h1.235v3.991h4.888v-3.991h1.235v9.282h-1.235v-4.251h-4.888v4.251h-1.235V63.916z"/>
	<path d="M67.634,73.172c-0.195,0.117-0.441,0.183-0.793,0.183c-0.572,0-0.936-0.313-0.936-1.04c-0.611,0.715-1.431,1.04-2.366,1.04
		c-1.223,0-2.224-0.546-2.224-1.886c0-1.521,1.131-1.846,2.275-2.066c1.222-0.234,2.262-0.156,2.262-0.988
		c0-0.962-0.793-1.118-1.495-1.118c-0.936,0-1.625,0.286-1.677,1.274h-1.105c0.065-1.664,1.353-2.249,2.848-2.249
		c1.209,0,2.522,0.272,2.522,1.846v3.458c0,0.521,0,0.754,0.351,0.754c0.091,0,0.195-0.013,0.338-0.064V73.172z M65.84,69.728
		c-0.429,0.312-1.261,0.324-2.002,0.454c-0.729,0.131-1.353,0.391-1.353,1.21c0,0.728,0.624,0.987,1.301,0.987
		c1.456,0,2.054-0.91,2.054-1.521V69.728z"/>
	<path d="M68.726,63.916h1.104v9.282h-1.104V63.916z"/>
	<path d="M71.612,63.916h1.104v9.282h-1.104V63.916z"/>
	<path d="M78.254,63.916h1.69l2.925,7.8l2.938-7.8h1.689v9.282h-1.17v-7.723h-0.026l-2.898,7.723h-1.054l-2.898-7.723h-0.026v7.723
		h-1.17V63.916z"/>
	<path d="M95.102,71.066c-0.299,1.481-1.365,2.288-2.873,2.288c-2.145,0-3.159-1.482-3.224-3.536c0-2.016,1.326-3.497,3.16-3.497
		c2.379,0,3.107,2.223,3.041,3.848h-5.031c-0.039,1.17,0.624,2.21,2.093,2.21c0.91,0,1.547-0.441,1.742-1.313H95.102z
		 M94.035,69.194c-0.051-1.054-0.844-1.898-1.936-1.898c-1.158,0-1.847,0.871-1.925,1.898H94.035z"/>
	<path d="M102.084,71.066c-0.299,1.481-1.365,2.288-2.873,2.288c-2.146,0-3.16-1.482-3.225-3.536c0-2.016,1.326-3.497,3.158-3.497
		c2.379,0,3.107,2.223,3.043,3.848h-5.031c-0.039,1.17,0.623,2.21,2.094,2.21c0.91,0,1.547-0.441,1.742-1.313H102.084z
		 M101.018,69.194c-0.053-1.054-0.846-1.898-1.938-1.898c-1.156,0-1.846,0.871-1.924,1.898H101.018z"/>
	<path d="M104.865,66.477h1.338v0.976h-1.338v4.173c0,0.507,0.143,0.599,0.832,0.599h0.506v0.975h-0.844
		c-1.145,0-1.6-0.234-1.6-1.469v-4.277h-1.145v-0.976h1.145v-2.015h1.105V66.477z"/>
	<path d="M108.596,65.268h-1.105v-1.352h1.105V65.268z M107.49,66.477h1.105v6.722h-1.105V66.477z"/>
	<path d="M110.311,66.477h1.041v1.066h0.025c0.469-0.832,1.223-1.222,2.184-1.222c1.77,0,2.314,1.014,2.314,2.457v4.42h-1.105v-4.55
		c0-0.819-0.52-1.353-1.365-1.353c-1.338,0-1.988,0.897-1.988,2.106v3.796h-1.105V66.477z"/>
	<path d="M123.338,72.626c0,2.185-1.002,3.303-3.121,3.303c-1.26,0-2.717-0.508-2.781-1.977h1.105
		c0.051,0.806,1.014,1.092,1.742,1.092c1.443,0,2.014-1.04,2.014-2.548v-0.441h-0.025c-0.363,0.818-1.248,1.222-2.094,1.222
		c-2.002,0-3.002-1.573-3.002-3.406c0-1.586,0.779-3.549,3.107-3.549c0.844,0,1.598,0.377,2.002,1.118h0.012v-0.963h1.041V72.626z
		 M122.246,69.701c0-1.184-0.52-2.405-1.912-2.405c-1.416,0-1.988,1.157-1.988,2.444c0,1.209,0.441,2.561,1.898,2.561
		C121.699,72.301,122.246,70.962,122.246,69.701z"/>
	<path d="M125.678,71.079c0.039,0.988,0.896,1.3,1.807,1.3c0.689,0,1.625-0.155,1.625-1.001c0-0.857-1.092-1.001-2.197-1.248
		c-1.092-0.247-2.197-0.61-2.197-1.897c0-1.353,1.34-1.911,2.51-1.911c1.482,0,2.666,0.468,2.756,2.105h-1.105
		c-0.078-0.857-0.832-1.131-1.559-1.131c-0.664,0-1.432,0.183-1.432,0.858c0,0.793,1.17,0.923,2.197,1.17
		c1.105,0.247,2.197,0.611,2.197,1.911c0,1.599-1.494,2.119-2.859,2.119c-1.508,0-2.783-0.611-2.848-2.275H125.678z"/>
	<path d="M26.685,93.799h-1.287l-2.119-7.801h-0.026l-2.145,7.801H19.82l-2.379-9.282h1.261l1.82,7.722h0.026l2.08-7.722h1.339
		l2.054,7.722h0.026l1.885-7.722h1.235L26.685,93.799z"/>
	<path d="M32.313,86.922c2.132,0,3.263,1.547,3.263,3.522c0,1.964-1.131,3.511-3.263,3.511c-2.132,0-3.263-1.547-3.263-3.511
		C29.05,88.469,30.181,86.922,32.313,86.922z M32.313,92.979c1.157,0,2.093-0.91,2.093-2.535c0-1.638-0.936-2.548-2.093-2.548
		c-1.157,0-2.093,0.91-2.093,2.548C30.22,92.069,31.156,92.979,32.313,92.979z"/>
	<path d="M36.837,87.077h1.04v1.417h0.026c0.533-1.078,1.274-1.611,2.47-1.572v1.17c-1.781,0-2.431,1.014-2.431,2.717v2.99h-1.105
		V87.077z"/>
	<path d="M41.27,84.517h1.105v5.499l3.068-2.938h1.482l-2.665,2.444l2.86,4.277h-1.404l-2.301-3.51l-1.04,0.962v2.548H41.27V84.517z
		"/>
	<path d="M48.628,91.68c0.039,0.988,0.897,1.3,1.807,1.3c0.689,0,1.625-0.155,1.625-1.001c0-0.857-1.092-1.001-2.197-1.248
		c-1.092-0.247-2.197-0.61-2.197-1.897c0-1.353,1.339-1.911,2.509-1.911c1.482,0,2.665,0.468,2.756,2.105h-1.105
		c-0.078-0.857-0.832-1.131-1.56-1.131c-0.663,0-1.43,0.182-1.43,0.858c0,0.793,1.17,0.923,2.197,1.17
		c1.105,0.247,2.197,0.611,2.197,1.911c0,1.599-1.495,2.119-2.86,2.119c-1.508,0-2.782-0.611-2.847-2.275H48.628z"/>
	<path d="M54.452,84.517h1.105v3.549h0.026c0.364-0.806,1.313-1.144,2.12-1.144c1.768,0,2.313,1.014,2.313,2.457v4.42h-1.104v-4.55
		c0-0.819-0.521-1.353-1.365-1.353c-1.339,0-1.989,0.897-1.989,2.106v3.796h-1.105V84.517z"/>
	<path d="M64.58,86.922c2.132,0,3.263,1.547,3.263,3.522c0,1.964-1.131,3.511-3.263,3.511c-2.133,0-3.264-1.547-3.264-3.511
		C61.316,88.469,62.447,86.922,64.58,86.922z M64.58,92.979c1.156,0,2.093-0.91,2.093-2.535c0-1.638-0.937-2.548-2.093-2.548
		c-1.157,0-2.094,0.91-2.094,2.548C62.486,92.069,63.422,92.979,64.58,92.979z"/>
	<path d="M69.181,87.077h1.105v0.91h0.025c0.364-0.741,1.223-1.065,2.146-1.065c2.066,0,3.094,1.638,3.094,3.536
		c0,1.897-1.014,3.497-3.068,3.497c-0.688,0-1.677-0.26-2.171-1.054h-0.025v3.472h-1.105V87.077z M72.301,87.896
		c-1.482,0-2.054,1.274-2.054,2.535c0,1.326,0.598,2.548,2.119,2.548c1.508,0,2.015-1.287,2.015-2.6
		C74.381,89.119,73.731,87.896,72.301,87.896z"/>
	<path d="M77.527,91.68c0.039,0.988,0.897,1.3,1.808,1.3c0.688,0,1.625-0.155,1.625-1.001c0-0.857-1.093-1.001-2.197-1.248
		c-1.092-0.247-2.197-0.61-2.197-1.897c0-1.353,1.339-1.911,2.509-1.911c1.482,0,2.666,0.468,2.757,2.105h-1.105
		c-0.078-0.857-0.832-1.131-1.56-1.131c-0.663,0-1.431,0.182-1.431,0.858c0,0.793,1.17,0.923,2.197,1.17
		c1.105,0.247,2.197,0.611,2.197,1.911c0,1.599-1.495,2.119-2.86,2.119c-1.508,0-2.782-0.611-2.847-2.275H77.527z"/>
</g>
</svg>
