<?xml version="1.0" encoding="utf-8"?>
<!-- Generator: Adobe Illustrator 16.0.0, SVG Export Plug-In . SVG Version: 6.00 Build 0)  -->
<!DOCTYPE svg PUBLIC "-//W3C//DTD SVG 1.1//EN" "http://www.w3.org/Graphics/SVG/1.1/DTD/svg11.dtd">
<svg version="1.1" id="Layer_1" xmlns="http://www.w3.org/2000/svg" xmlns:xlink="http://www.w3.org/1999/xlink" x="0px" y="0px"
	 width="463.711px" height="35.021px" viewBox="0 0 463.711 35.021" enable-background="new 0 0 463.711 35.021"
	 xml:space="preserve">
<g>
	<path d="M9.363,21.102c0,3.65,2.688,5.077,6.007,5.077c3.65,0,5.012-1.792,5.012-3.584c0-1.825-0.996-2.556-1.958-2.921
		c-1.66-0.63-3.817-1.062-7.069-1.958c-4.049-1.095-5.244-3.551-5.244-6.007c0-4.746,4.381-6.97,8.662-6.97
		c4.945,0,9.093,2.622,9.093,7.567h-4.148c-0.199-3.054-2.257-4.182-5.111-4.182c-1.925,0-4.348,0.696-4.348,3.086
		c0,1.66,1.128,2.589,2.821,3.054c0.365,0.1,5.609,1.46,6.836,1.825c3.12,0.93,4.613,3.584,4.613,6.04
		c0,5.311-4.713,7.435-9.425,7.435c-5.41,0-9.791-2.589-9.89-8.463H9.363z"/>
	<path d="M41.982,25.184c0,0.929,0.199,1.294,0.896,1.294c0.232,0,0.531,0,0.929-0.066v2.622c-0.563,0.199-1.759,0.432-2.389,0.432
		c-1.527,0-2.622-0.531-2.921-2.091c-1.493,1.46-3.916,2.091-5.94,2.091c-3.087,0-5.875-1.659-5.875-5.012
		c0-4.281,3.419-4.979,6.604-5.343c2.722-0.498,5.145-0.199,5.145-2.423c0-1.958-2.024-2.323-3.551-2.323
		c-2.124,0-3.618,0.862-3.784,2.722h-3.783c0.266-4.414,4.016-5.709,7.8-5.709c3.352,0,6.869,1.361,6.869,4.979V25.184z
		 M38.199,20.405c-1.161,0.764-2.987,0.73-4.646,1.029c-1.626,0.265-3.086,0.862-3.086,2.854c0,1.692,2.157,2.19,3.484,2.19
		c1.659,0,4.248-0.862,4.248-3.252V20.405z"/>
	<path d="M44.369,11.842h2.821v-1.427c0-4.381,2.289-5.111,4.745-5.111c1.195,0,2.058,0.066,2.655,0.232v2.954
		c-0.498-0.133-0.995-0.199-1.759-0.199c-1.029,0-1.858,0.365-1.858,1.792v1.759h3.219v2.821h-3.219V29H47.19V14.664h-2.821V11.842z
		"/>
	<path d="M59.467,21.401c0,2.688,1.46,5.077,4.612,5.077c2.19,0,3.519-0.962,4.183-2.854h3.584c-0.83,3.75-4.016,5.841-7.767,5.841
		c-5.376,0-8.396-3.75-8.396-9.027c0-4.879,3.187-9.061,8.298-9.061c5.409,0,8.727,4.879,8.098,10.023H59.467z M68.295,18.912
		c-0.133-2.39-1.76-4.547-4.315-4.547c-2.622,0-4.414,1.991-4.514,4.547H68.295z"/>
	<path d="M87.44,21.102c0,3.65,2.688,5.077,6.006,5.077c3.65,0,5.012-1.792,5.012-3.584c0-1.825-0.996-2.556-1.959-2.921
		c-1.658-0.63-3.816-1.062-7.068-1.958c-4.049-1.095-5.244-3.551-5.244-6.007c0-4.746,4.381-6.97,8.662-6.97
		c4.945,0,9.094,2.622,9.094,7.567h-4.148c-0.199-3.054-2.256-4.182-5.111-4.182c-1.924,0-4.348,0.696-4.348,3.086
		c0,1.66,1.129,2.589,2.822,3.054c0.365,0.1,5.607,1.46,6.836,1.825c3.119,0.93,4.613,3.584,4.613,6.04
		c0,5.311-4.713,7.435-9.426,7.435c-5.41,0-9.791-2.589-9.891-8.463H87.44z"/>
	<path d="M103.963,11.842h2.854V6.699h3.783v5.144h3.418v2.821H110.6v9.159c0,1.561,0.133,2.356,1.826,2.356
		c0.531,0,1.061,0,1.592-0.133v2.921c-0.828,0.066-1.625,0.199-2.455,0.199c-3.949,0-4.68-1.526-4.746-4.381V14.664h-2.854V11.842z"
		/>
	<path d="M116.737,11.842h3.551v3.319h0.066c0.432-1.826,2.689-3.784,5.012-3.784c0.863,0,1.096,0.066,1.428,0.1v3.651
		c-0.531-0.066-1.096-0.166-1.627-0.166c-2.588,0-4.646,2.091-4.646,5.874V29h-3.783V11.842z"/>
	<path d="M130.774,21.401c0,2.688,1.461,5.077,4.613,5.077c2.189,0,3.518-0.962,4.182-2.854h3.584
		c-0.83,3.75-4.016,5.841-7.766,5.841c-5.377,0-8.396-3.75-8.396-9.027c0-4.879,3.186-9.061,8.297-9.061
		c5.41,0,8.729,4.879,8.098,10.023H130.774z M139.602,18.912c-0.133-2.39-1.76-4.547-4.314-4.547c-2.621,0-4.414,1.991-4.514,4.547
		H139.602z"/>
	<path d="M149.223,21.401c0,2.688,1.461,5.077,4.613,5.077c2.189,0,3.518-0.962,4.182-2.854h3.584
		c-0.83,3.75-4.016,5.841-7.766,5.841c-5.377,0-8.396-3.75-8.396-9.027c0-4.879,3.186-9.061,8.297-9.061
		c5.41,0,8.729,4.879,8.098,10.023H149.223z M158.051,18.912c-0.133-2.39-1.76-4.547-4.314-4.547c-2.621,0-4.414,1.991-4.514,4.547
		H158.051z"/>
	<path d="M162.993,11.842h2.854V6.699h3.783v5.144h3.418v2.821h-3.418v9.159c0,1.561,0.133,2.356,1.826,2.356
		c0.531,0,1.061,0,1.592-0.133v2.921c-0.828,0.066-1.625,0.199-2.455,0.199c-3.949,0-4.68-1.526-4.746-4.381V14.664h-2.854V11.842z"
		/>
	<path d="M178.622,23.492c0.199,2.19,1.859,2.986,3.883,2.986c1.428,0,3.916-0.299,3.816-2.257c-0.1-1.991-2.854-2.224-5.607-2.854
		c-2.789-0.598-5.51-1.594-5.51-5.078c0-3.75,4.049-4.912,7.168-4.912c3.518,0,6.705,1.461,7.17,5.277h-3.951
		c-0.33-1.792-1.824-2.29-3.484-2.29c-1.094,0-3.119,0.266-3.119,1.759c0,1.858,2.787,2.124,5.576,2.755
		c2.754,0.63,5.541,1.626,5.541,5.011c0,4.082-4.115,5.576-7.666,5.576c-4.314,0-7.533-1.925-7.6-5.974H178.622z"/>
	<path d="M200.52,11.842h2.822v-1.427c0-4.381,2.289-5.111,4.744-5.111c1.195,0,2.059,0.066,2.656,0.232v2.954
		c-0.498-0.133-0.996-0.199-1.76-0.199c-1.029,0-1.857,0.365-1.857,1.792v1.759h3.219v2.821h-3.219V29h-3.783V14.664h-2.822V11.842z
		"/>
	<path d="M211.868,20.405c0-5.243,3.154-9.027,8.662-9.027c5.51,0,8.662,3.784,8.662,9.027c0,5.277-3.152,9.061-8.662,9.061
		C215.022,29.465,211.868,25.682,211.868,20.405z M225.409,20.405c0-2.954-1.492-6.04-4.879-6.04c-3.385,0-4.877,3.086-4.877,6.04
		c0,2.987,1.492,6.073,4.877,6.073C223.917,26.478,225.409,23.392,225.409,20.405z"/>
	<path d="M232.34,11.842h3.551v3.319h0.066c0.432-1.826,2.689-3.784,5.012-3.784c0.863,0,1.096,0.066,1.428,0.1v3.651
		c-0.531-0.066-1.096-0.166-1.627-0.166c-2.588,0-4.646,2.091-4.646,5.874V29h-3.783V11.842z"/>
	<path d="M256.499,21.102c0,3.65,2.688,5.077,6.006,5.077c3.65,0,5.012-1.792,5.012-3.584c0-1.825-0.996-2.556-1.959-2.921
		c-1.658-0.63-3.816-1.062-7.068-1.958c-4.049-1.095-5.244-3.551-5.244-6.007c0-4.746,4.381-6.97,8.662-6.97
		c4.945,0,9.094,2.622,9.094,7.567h-4.148c-0.199-3.054-2.256-4.182-5.111-4.182c-1.924,0-4.348,0.696-4.348,3.086
		c0,1.66,1.129,2.589,2.822,3.054c0.365,0.1,5.607,1.46,6.836,1.825c3.119,0.93,4.613,3.584,4.613,6.04
		c0,5.311-4.713,7.435-9.426,7.435c-5.41,0-9.791-2.589-9.891-8.463H256.499z"/>
	<path d="M277.702,21.401c0,2.688,1.459,5.077,4.611,5.077c2.191,0,3.52-0.962,4.184-2.854h3.584
		c-0.83,3.75-4.016,5.841-7.768,5.841c-5.375,0-8.396-3.75-8.396-9.027c0-4.879,3.188-9.061,8.299-9.061
		c5.408,0,8.727,4.879,8.098,10.023H277.702z M286.53,18.912c-0.133-2.39-1.76-4.547-4.314-4.547c-2.623,0-4.414,1.991-4.514,4.547
		H286.53z"/>
	<path d="M293.196,11.842h3.584v2.522l0.066,0.066c1.129-1.892,3.086-3.054,5.344-3.054c3.717,0,6.072,1.991,6.072,5.842V29h-3.783
		V18.214c-0.066-2.688-1.129-3.85-3.352-3.85c-2.521,0-4.148,1.991-4.148,4.514V29h-3.783V11.842z"/>
	<path d="M312.34,5.304h3.783v3.584h-3.783V5.304z M312.34,11.842h3.783V29h-3.783V11.842z"/>
	<path d="M319.442,20.405c0-5.243,3.152-9.027,8.662-9.027s8.662,3.784,8.662,9.027c0,5.277-3.152,9.061-8.662,9.061
		S319.442,25.682,319.442,20.405z M332.983,20.405c0-2.954-1.494-6.04-4.879-6.04s-4.879,3.086-4.879,6.04
		c0,2.987,1.494,6.073,4.879,6.073S332.983,23.392,332.983,20.405z"/>
	<path d="M339.915,11.842h3.551v3.319h0.066c0.432-1.826,2.688-3.784,5.012-3.784c0.863,0,1.094,0.066,1.426,0.1v3.651
		c-0.529-0.066-1.094-0.166-1.625-0.166c-2.59,0-4.646,2.091-4.646,5.874V29h-3.783V11.842z"/>
	<path d="M354.448,23.492c0.199,2.19,1.859,2.986,3.883,2.986c1.428,0,3.916-0.299,3.816-2.257c-0.1-1.991-2.854-2.224-5.607-2.854
		c-2.789-0.598-5.51-1.594-5.51-5.078c0-3.75,4.049-4.912,7.168-4.912c3.518,0,6.705,1.461,7.17,5.277h-3.951
		c-0.33-1.792-1.824-2.29-3.484-2.29c-1.094,0-3.119,0.266-3.119,1.759c0,1.858,2.787,2.124,5.576,2.755
		c2.754,0.63,5.541,1.626,5.541,5.011c0,4.082-4.115,5.576-7.666,5.576c-4.314,0-7.533-1.925-7.6-5.974H354.448z"/>
</g>
<rect x="415.73" y="3.427" fill="#F47C20" width="29.326" height="29.011"/>
</svg>
