<?xml version="1.0" encoding="utf-8"?>
<!-- Generator: Adobe Illustrator 16.0.0, SVG Export Plug-In . SVG Version: 6.00 Build 0)  -->
<!DOCTYPE svg PUBLIC "-//W3C//DTD SVG 1.1//EN" "http://www.w3.org/Graphics/SVG/1.1/DTD/svg11.dtd">
<svg version="1.1" id="Layer_1" xmlns="http://www.w3.org/2000/svg" xmlns:xlink="http://www.w3.org/1999/xlink" x="0px" y="0px"
	 width="109.213px" height="9.406px" viewBox="0 0 109.213 9.406" enable-background="new 0 0 109.213 9.406" xml:space="preserve">
<g>
	<path fill="#203970" d="M69.8,2.747c-0.019-0.051-0.068-0.092-0.129-0.092h-2.527c-0.06,0-0.107,0.041-0.127,0.092l-0.438,1.045
		h3.654L69.8,2.747z"/>
	<g>
		<polygon fill="#203970" points="5.693,0.425 4.388,5.343 4.366,5.343 3.038,0.425 0.523,0.425 0.523,0.448 2.938,8.532 
			5.729,8.532 8.262,0.425 		"/>
		<rect x="8.484" y="0.425" fill="#203970" width="2.5" height="8.109"/>
		<path fill="#203970" d="M13.853,5.809c0,0.205,0.035,0.389,0.09,0.532c0.181,0.49,0.729,0.593,1.192,0.593
			c0.409,0,1.034-0.138,1.034-0.738c0-0.422-0.353-0.533-1.75-0.935c-1.281-0.359-2.747-0.715-2.747-2.35
			c0.001-1.871,1.603-2.678,3.27-2.678c1.762,0,3.317,0.67,3.384,2.646h-2.359c0.044-0.307-0.091-0.51-0.296-0.646
			c-0.204-0.15-0.49-0.205-0.74-0.205c-0.34,0-0.896,0.09-0.896,0.541c0.047,0.58,1.204,0.705,2.352,1.023
			c1.148,0.318,2.284,0.854,2.284,2.34c0,2.113-1.942,2.793-3.749,2.793c-0.918,0-3.542-0.33-3.565-2.918h2.496V5.809L13.853,5.809z
			"/>
		<rect x="19.131" y="0.425" fill="#203970" width="2.5" height="8.109"/>
		<polygon fill="#203970" points="30.942,0.425 33.5,0.425 35.858,4.763 35.884,4.763 35.884,0.425 38.246,0.425 38.246,8.532 
			35.814,8.532 33.329,4.106 33.305,4.106 33.305,8.532 30.942,8.532 		"/>
		<path fill="#203970" d="M27.134,8.648L26.83,7.063l-0.965-1.057l-0.222,1.031c-0.008,0.047-0.071,0.148-0.093,0.189L24.81,8.48
			c0.449,0.16,0.949,0.242,1.488,0.242c0.29,0,0.569-0.024,0.836-0.07C27.134,8.652,27.134,8.652,27.134,8.648"/>
		<path fill="#203970" d="M26.298,0.233c-2.464,0-4.11,1.77-4.11,4.246c0,1.582,0.675,2.876,1.807,3.605l0.715-1.205l0.714-3.176
			l-0.467,0.379L24.71,5.217c-0.033,0.141-0.165,0.262-0.323,0.248c-0.165-0.012-0.288-0.158-0.276-0.324
			c0.002-0.014,0.004-0.029,0.006-0.041l0.297-1.32c0.016-0.059,0.048-0.107,0.092-0.146l1.345-1.09
			c0.133-0.09,0.294-0.152,0.469-0.137c0.232,0.018,0.419,0.158,0.532,0.332l0.678,1.34l0.92,0.631
			c0.079,0.061,0.125,0.158,0.117,0.268c-0.014,0.166-0.159,0.29-0.326,0.275c-0.049-0.004-0.089-0.022-0.135-0.047l-1.003-0.689
			c-0.032-0.023-0.058-0.057-0.076-0.09l-0.256-0.5l-0.302,1.337l1.186,1.401c0.026,0.043,0.046,0.092,0.055,0.144L28.012,8.4
			c1.483-0.619,2.399-2.074,2.399-3.917C30.408,2.005,28.762,0.233,26.298,0.233 M27.132,1.659
			c-0.027,0.369-0.351,0.643-0.719,0.615c-0.368-0.031-0.646-0.354-0.612-0.721c0.028-0.371,0.352-0.643,0.718-0.613
			C26.888,0.97,27.162,1.29,27.132,1.659"/>
		<polygon fill="#203970" points="41.319,6.579 45.089,2.503 41.536,2.503 41.536,0.425 48.381,0.425 48.381,2.243 44.578,6.456 
			48.563,6.456 48.563,8.532 41.319,8.532 		"/>
		<polygon fill="#203970" points="49.179,0.425 55.89,0.425 55.89,2.503 51.675,2.503 51.675,3.515 55.503,3.515 55.503,5.443 
			51.675,5.443 51.675,6.456 56.015,6.456 56.015,8.532 49.179,8.532 		"/>
		<path fill="#203970" d="M56.64,0.425h4.758c1.42,0,2.646,0.785,2.646,2.316c0,0.844-0.386,1.727-1.214,2.035
			c0.683,0.262,1.103,1.012,1.188,2.021c0.037,0.396,0.047,1.359,0.272,1.734h-2.496c-0.125-0.408-0.171-0.826-0.206-1.248
			c-0.068-0.773-0.136-1.578-1.121-1.578H59.14v2.824h-2.498L56.64,0.425L56.64,0.425z M59.14,3.968h1.303
			c0.469,0,1.104-0.078,1.104-0.803c0-0.514-0.286-0.807-1.237-0.807h-1.17V3.968L59.14,3.968z"/>
		<path fill="#203970" d="M70.272,4.269c-0.203,0-0.365,0.164-0.365,0.363c0,0.201,0.162,0.363,0.365,0.363s0.365-0.162,0.365-0.363
			C70.638,4.431,70.476,4.269,70.272,4.269"/>
		<path fill="#203970" d="M66.515,4.269c-0.203,0-0.365,0.164-0.365,0.363c0,0.201,0.162,0.363,0.365,0.363
			c0.2,0,0.362-0.162,0.362-0.363C66.877,4.431,66.715,4.269,66.515,4.269"/>
		<path fill="#203970" d="M68.401,0.233c-2.465,0-4.11,1.77-4.11,4.248c0,2.475,1.646,4.244,4.11,4.244
			c2.464,0,4.109-1.77,4.109-4.244C72.513,2.003,70.866,0.233,68.401,0.233 M71.167,4.468v1.425h-0.439v0.438
			c0,0.239-0.195,0.437-0.437,0.437c-0.239,0-0.437-0.197-0.437-0.438V5.891h-2.899v0.438c0,0.237-0.192,0.435-0.433,0.435
			s-0.438-0.193-0.438-0.435V5.891h-0.441V4.468l0,0c0-0.311,0.207-0.572,0.494-0.646l0.51-1.211
			c0.074-0.178,0.246-0.303,0.453-0.303h2.607c0.203,0,0.376,0.125,0.448,0.303l0.51,1.211C70.96,3.896,71.167,4.157,71.167,4.468
			L71.167,4.468z"/>
	</g>
</g>
<path fill="none" stroke="#203970" stroke-width="0.25" d="M83.929,0.404h2.268V8.63h-2.268V0.404z"/>
<path fill="none" stroke="#203970" stroke-width="0.25" d="M87.769,0.404h6.938v1.717h-4.67V3.56h4.268v1.661h-4.268v1.565h4.791
	V8.63h-7.059V0.404z"/>
<polygon fill="none" stroke="#203970" stroke-width="0.25" stroke-miterlimit="10" points="80.755,0.463 79.449,5.382 79.429,5.382 
	78.101,0.463 75.585,0.463 75.585,0.486 77.999,8.57 80.79,8.57 83.323,0.463 "/>
<polygon fill="none" stroke="#203970" stroke-width="0.25" stroke-miterlimit="10" points="105.881,0.328 104.575,5.248 
	104.554,5.248 103.226,0.328 102.896,0.328 100.711,0.328 100.327,0.328 99.021,5.247 99,5.247 97.672,0.328 95.157,0.328 
	95.157,0.351 97.571,8.436 100.362,8.436 101.774,3.915 103.125,8.438 105.916,8.438 108.449,0.328 "/>
</svg>
